<?xml version="1.0" encoding="utf-8" standalone="no"?>
<!DOCTYPE svg PUBLIC "-//W3C//DTD SVG 1.1//EN"
  "http://www.w3.org/Graphics/SVG/1.1/DTD/svg11.dtd">
<svg height="345.6pt" version="1.1" viewBox="0 0 460.8 345.6" width="460.8pt" xmlns="http://www.w3.org/2000/svg" xmlns:xlink="http://www.w3.org/1999/xlink">
 <metadata>
  <rdf:RDF xmlns:cc="http://creativecommons.org/ns#" xmlns:dc="http://purl.org/dc/elements/1.1/" xmlns:rdf="http://www.w3.org/1999/02/22-rdf-syntax-ns#">
   <cc:Work>
    <dc:type rdf:resource="http://purl.org/dc/dcmitype/StillImage"/>
    <dc:date>2021-07-20T13:45:22.479884</dc:date>
    <dc:format>image/svg+xml</dc:format>
    <dc:creator>
     <cc:Agent>
      <dc:title>Matplotlib v3.4.2, https://matplotlib.org/</dc:title>
     </cc:Agent>
    </dc:creator>
   </cc:Work>
  </rdf:RDF>
 </metadata>
 <defs>
  <style type="text/css">*{stroke-linecap:butt;stroke-linejoin:round;}</style>
 </defs>
 <g id="figure_1">
  <g id="axes_1">
   <g id="line2d_1">
    <path clip-path="url(#p1266db582f)" d="M 237.258436 295.290517 
L 237.367622 295.368498 
L 238.189973 295.47034 
L 240.81726 295.431892 
L 243.524613 295.201812 
L 247.104229 294.702655 
L 251.713642 293.783979 
L 254.46888 293.098081 
L 257.565526 292.210052 
L 261.038352 291.06986 
L 264.924961 289.615691 
L 269.265234 287.771619 
L 274.100436 285.445108 
L 279.471815 282.52448 
L 285.418537 278.876699 
L 291.974696 274.345981 
L 299.165156 268.75407 
L 306.99994 261.903384 
L 315.466914 253.584695 
L 324.522666 243.59137 
L 334.081749 231.742347 
L 344.004944 217.915514 
L 354.087983 202.091518 
L 364.053101 184.404783 
L 373.54685 165.193462 
L 382.148191 145.034148 
L 389.390519 124.74281 
L 394.799217 105.324557 
L 397.942373 87.865181 
L 398.487273 73.376865 
L 396.250975 62.632522 
L 391.23228 56.035923 
L 383.616061 53.568 
L 373.748398 54.823815 
L 362.089156 59.122465 
L 349.154056 65.650325 
L 335.458979 73.595566 
L 321.475912 82.245595 
L 281.374991 107.59599 
L 269.400167 114.969507 
L 258.324969 121.642422 
L 238.981275 132.944473 
L 216.580683 145.598488 
L 196.541313 156.940539 
L 175.379317 169.123988 
L 171.943727 170.667137 
L 168.809745 171.678987 
L 167.315963 171.987634 
L 165.855462 172.165199 
L 164.419835 172.212007 
L 163.003047 172.128621 
L 161.60127 171.916033 
L 160.212737 171.575853 
L 158.837602 171.110484 
L 157.477799 170.523299 
L 154.820034 169.002774 
L 152.285292 167.066351 
L 149.938416 164.789776 
L 147.857131 162.273533 
L 146.124625 159.64064 
L 144.820948 157.030614 
L 144.013821 154.589719 
L 143.812062 153.477219 
L 143.749846 152.458555 
L 143.828535 151.548257 
L 144.047439 150.758934 
L 144.403773 150.100994 
L 144.89267 149.582443 
L 145.507267 149.208762 
L 146.238845 148.98288 
L 147.077014 148.905226 
L 148.009958 148.973856 
L 149.024695 149.184652 
L 151.243547 150.006896 
L 153.617507 151.305517 
L 156.0302 152.997074 
L 158.372546 154.989838 
L 160.548306 157.190775 
L 162.477337 159.510346 
L 164.096776 161.865187 
L 165.360606 164.179113 
L 166.238193 166.382967 
L 166.712323 168.413854 
L 166.777217 170.214172 
L 166.436858 171.730791 
L 166.118326 172.367216 
L 165.70384 172.914622 
L 165.196236 173.367532 
L 164.598861 173.720779 
L 163.915591 173.96956 
L 163.150855 174.109498 
L 162.309672 174.136719 
L 161.397686 174.047948 
L 159.387244 173.512991 
L 157.178648 172.494875 
L 154.843213 171.00162 
L 152.464697 169.063633 
L 150.138315 166.737759 
L 147.968028 164.109682 
L 146.061759 161.293467 
L 144.52453 158.427189 
L 143.44995 155.664182 
L 143.110024 154.370447 
L 142.911059 153.160431 
L 142.857586 152.05161 
L 142.95192 151.059773 
L 143.194044 150.198633 
L 143.581563 149.479493 
L 144.109735 148.911019 
L 144.77156 148.499098 
L 145.557943 148.246801 
L 146.457914 148.154444 
L 147.458899 148.21974 
L 148.547018 148.438018 
L 149.707418 148.80251 
L 152.182768 149.934485 
L 154.759083 151.531932 
L 157.314782 153.49837 
L 159.739886 155.733392 
L 161.940755 158.139073 
L 163.842307 160.623829 
L 165.38814 163.104101 
L 166.539211 165.50448 
L 167.271694 167.756887 
L 167.57463 169.799361 
L 167.447782 171.574856 
L 167.22563 172.345775 
L 166.899999 173.030354 
L 166.473262 173.62254 
L 165.94828 174.116527 
L 165.32842 174.50679 
L 164.617571 174.788134 
L 163.820179 174.955754 
L 162.941282 175.005322 
L 161.986562 174.933082 
L 160.962383 174.735969 
L 158.734854 173.959115 
L 156.325157 172.66942 
L 153.813279 170.882308 
L 151.292781 168.63918 
L 148.869261 166.01164 
L 146.656685 163.103422 
L 144.77129 160.048583 
L 143.323203 157.004906 
L 142.793455 155.540284 
L 142.406483 154.14231 
L 142.169859 152.831571 
L 142.088951 151.627374 
L 142.166718 150.54723 
L 142.403568 149.606394 
L 142.7973 148.817492 
L 143.343116 148.190237 
L 144.033716 147.731264 
L 144.859474 147.444083 
L 145.808674 147.329141 
L 146.867813 147.383993 
L 148.021932 147.603552 
L 149.254989 147.980415 
L 151.890548 149.167049 
L 154.638397 150.85248 
L 157.36732 152.931941 
L 159.959089 155.297209 
L 162.313628 157.843663 
L 164.351296 160.474376 
L 166.012834 163.101744 
L 167.257695 165.647363 
L 168.061508 168.040895 
L 168.413335 170.218522 
L 168.419385 171.207832 
L 168.313184 172.121434 
L 168.096135 172.952566 
L 167.770133 173.694671 
L 167.337552 174.341384 
L 166.801238 174.886555 
L 166.164531 175.324275 
L 165.43128 175.648916 
L 164.605885 175.8552 
L 163.69334 175.938279 
L 162.699284 175.893835 
L 161.630063 175.718206 
L 160.492785 175.408521 
L 158.046671 174.380462 
L 155.435187 172.809044 
L 152.747625 170.717839 
L 150.088101 168.160421 
L 147.573329 165.224711 
L 145.32781 162.034196 
L 143.476227 158.744419 
L 142.133352 155.533704 
L 141.683016 154.016392 
L 141.392578 152.588336 
L 141.268544 151.271017 
L 141.314817 150.084041 
L 141.53252 149.044609 
L 141.919902 148.167059 
L 142.472336 147.462535 
L 143.182408 146.93877 
L 144.040095 146.600015 
L 145.033021 146.447096 
L 146.146786 146.477599 
L 147.365339 146.686152 
L 148.671387 147.064787 
L 150.046819 147.603358 
L 152.931751 149.111469 
L 155.873972 151.102287 
L 158.737505 153.459226 
L 161.404016 156.066955 
L 163.776863 158.81752 
L 165.782126 161.613283 
L 167.367375 164.367417 
L 168.499067 167.002894 
L 169.159374 169.450701 
L 169.343084 171.647899 
L 169.257388 172.634084 
L 169.055034 173.535918 
L 168.737904 174.346568 
L 168.308342 175.059359 
L 167.769146 175.667788 
L 167.123582 176.165538 
L 166.375407 176.546526 
L 165.528912 176.804955 
L 164.58897 176.9354 
L 163.561097 176.932902 
L 162.451521 176.7931 
L 161.267251 176.512375 
L 160.016152 176.088021 
L 158.707014 175.518435 
L 155.954766 173.943929 
L 153.101272 171.80622 
L 150.254068 169.154076 
L 147.535747 166.073349 
L 145.079432 162.689574 
L 143.021022 159.165524 
L 142.181655 157.40988 
L 141.488413 155.692245 
L 140.953936 154.038344 
L 140.588743 152.473422 
L 140.400871 151.021533 
L 140.395571 149.704846 
L 140.575072 148.543014 
L 140.938447 147.552616 
L 141.481576 146.746745 
L 142.197216 146.134724 
L 143.075173 145.721988 
L 144.102576 145.51012 
L 145.264223 145.49704 
L 146.543 145.67731 
L 147.92033 146.042542 
L 149.376653 146.581869 
L 150.891892 147.28245 
L 154.018898 149.109158 
L 157.146453 151.398967 
L 160.135222 154.025044 
L 162.867999 156.86645 
L 165.252484 159.813125 
L 167.220993 162.767555 
L 168.728068 165.64417 
L 169.747004 168.367481 
L 170.266118 170.869732 
L 170.337857 172.018332 
L 170.285389 173.088622 
L 170.110108 174.07336 
L 169.813867 174.965448 
L 169.398952 175.757912 
L 168.868077 176.443899 
L 168.224392 177.016688 
L 167.471509 177.469723 
L 166.613543 177.796664 
L 165.655165 177.991461 
L 164.601674 178.048452 
L 163.459067 177.962484 
L 162.234129 177.729067 
L 160.934517 177.344546 
L 159.568846 176.806307 
L 158.146776 176.112998 
L 156.679075 175.264775 
L 155.177674 174.263558 
L 152.12745 171.820164 
L 149.114982 168.842832 
L 146.275446 165.43379 
L 143.754589 161.739612 
L 142.65984 159.842656 
L 141.699243 157.947037 
L 140.889211 156.080402 
L 140.244501 154.270981 
L 139.777744 152.546826 
L 139.499008 150.935009 
L 139.415414 149.460814 
L 139.530834 148.146976 
L 139.845685 147.013004 
L 140.356844 146.074644 
L 141.057674 145.343495 
L 141.93818 144.826819 
L 142.985281 144.527526 
L 144.183173 144.444343 
L 145.513783 144.572137 
L 146.95727 144.902358 
L 148.492561 145.423574 
L 150.097885 146.122045 
L 151.751294 146.982313 
L 155.116456 149.121144 
L 158.42541 151.702083 
L 161.536445 154.589384 
L 164.334262 157.657686 
L 166.731388 160.795704 
L 168.666538 163.906603 
L 170.101106 166.906328 
L 171.014876 169.720954 
L 171.274122 171.037816 
L 171.401801 172.283834 
L 171.398786 173.451391 
L 171.266443 174.533037 
L 171.006577 175.521436 
L 170.6214 176.409344 
L 170.113516 177.189584 
L 169.485924 177.855051 
L 168.742039 178.39873 
L 167.885737 178.813735 
L 166.921409 179.093377 
L 165.854032 179.231246 
L 164.689256 179.221332 
L 163.433495 179.058169 
L 162.094032 178.737013 
L 160.679123 178.254046 
L 159.1981 177.606616 
L 157.661465 176.793502 
L 156.080975 175.815194 
L 154.469694 174.674192 
L 152.842028 173.375306 
L 151.21371 171.925934 
L 149.601738 170.336317 
L 148.024259 168.619729 
L 146.500388 166.792594 
L 145.049953 164.8745 
L 143.693174 162.888087 
L 142.450267 160.858795 
L 141.340993 158.814457 
L 140.384154 156.784741 
L 139.597055 154.800448 
L 138.994962 152.892692 
L 138.590578 151.092004 
L 138.393566 149.427389 
L 138.410146 147.925422 
L 138.642801 146.609407 
L 139.090102 145.498676 
L 139.746671 144.608059 
L 140.60329 143.947564 
L 141.647148 143.522276 
L 142.862208 143.332472 
L 144.229686 143.373929 
L 145.728602 143.638397 
L 147.336374 144.114185 
L 149.029435 144.786823 
L 150.783828 145.639741 
L 152.575767 146.654934 
L 156.180884 149.096572 
L 159.674833 151.96037 
L 162.913901 155.102577 
L 165.784918 158.394151 
L 168.205259 161.723088 
L 170.119861 164.9935 
L 171.496618 168.122921 
L 171.9783 169.611828 
L 172.321326 171.038926 
L 172.525951 172.396188 
L 172.593012 173.675821 
L 172.523837 174.870198 
L 172.320183 175.971794 
L 171.98418 176.973138 
L 171.518308 177.866786 
L 170.925396 178.645298 
L 170.20863 179.301248 
L 169.371596 179.827245 
L 168.418331 180.215981 
L 167.353398 180.460305 
L 166.181973 180.553324 
L 164.909952 180.488536 
L 163.54406 180.260001 
L 162.091978 179.862544 
L 160.562463 179.291992 
L 158.965477 178.54545 
L 157.312291 177.621609 
L 155.615589 176.521077 
L 153.889532 175.246721 
L 152.149797 173.804019 
L 150.413555 172.201382 
L 148.699408 170.450446 
L 147.027242 168.566287 
L 145.418018 166.56755 
L 143.893467 164.47644 
L 142.475714 162.318577 
L 141.186815 160.122668 
L 140.048224 157.920004 
L 139.080205 155.743774 
L 138.301219 153.628214 
L 137.727299 151.607631 
L 137.371461 149.715341 
L 137.24318 147.982585 
L 137.347965 146.437498 
L 137.687058 145.10419 
L 138.257296 144.002003 
L 139.051124 143.144994 
L 140.056781 142.541678 
L 141.258649 142.195025 
L 142.637724 142.102711 
L 144.172209 142.257581 
L 145.83817 142.648275 
L 147.610236 143.259972 
L 149.46229 144.075174 
L 151.368133 145.074502 
L 153.302085 146.237434 
L 155.239505 147.542971 
L 159.033835 150.498714 
L 162.588472 153.782634 
L 165.774523 157.252328 
L 168.4975 160.785323 
L 170.694248 164.27822 
L 172.327757 167.643574 
L 172.927432 169.254479 
L 173.381287 170.805902 
L 173.689484 172.289625 
L 173.852806 173.697701 
L 173.872546 175.022368 
L 173.750414 176.255967 
L 173.488475 177.390876 
L 173.089099 178.419462 
L 172.554946 179.334043 
L 171.888968 180.126872 
L 171.094437 180.790142 
L 170.174992 181.316011 
L 169.134706 181.696654 
L 167.97818 181.924341 
L 166.710648 181.99155 
L 165.338096 181.891116 
L 163.867403 181.61642 
L 162.30648 181.161612 
L 160.664421 180.521891 
L 158.951647 179.693812 
L 157.180047 178.675641 
L 155.363086 177.467737 
L 153.515902 176.072956 
L 151.655348 174.497058 
L 149.799983 172.749092 
L 147.970004 170.84174 
L 146.187085 168.791577 
L 144.474139 166.619227 
L 142.854978 164.34936 
L 141.353873 162.010519 
L 139.995027 159.634738 
L 138.801952 157.25694 
L 137.796798 154.914126 
L 136.999638 152.644369 
L 136.427751 150.485657 
L 136.094954 148.474649 
L 136.011008 146.645417 
L 136.181146 145.028261 
L 136.605768 143.648675 
L 137.280305 142.526548 
L 138.195288 141.675635 
L 139.336606 141.103344 
L 140.685948 140.81084 
L 142.221387 140.793422 
L 143.918096 141.041148 
L 145.749114 141.539636 
L 147.686159 142.270958 
L 149.70041 143.214581 
L 151.763246 144.34827 
L 153.8469 145.648926 
L 155.925005 147.093298 
L 159.96862 150.322834 
L 163.724887 153.866834 
L 167.063275 157.576862 
L 169.891277 161.328056 
L 172.149925 165.016932 
L 173.054919 166.810476 
L 173.807371 168.557123 
L 174.406412 170.247959 
L 174.852037 171.87454 
L 175.144946 173.428775 
L 175.28639 174.902803 
L 175.278059 176.288897 
L 175.12198 177.579373 
L 174.820459 178.766519 
L 174.376031 179.842537 
L 173.79145 180.799503 
L 173.069696 181.629347 
L 172.214012 182.323849 
L 171.227961 182.874663 
L 170.115506 183.273368 
L 168.881118 183.511545 
L 167.529896 183.580897 
L 166.067709 183.4734 
L 164.501354 183.181512 
L 162.838724 182.698411 
L 161.088984 182.018302 
L 159.262744 181.136763 
L 157.372224 180.051147 
L 155.431405 178.761014 
L 153.456145 177.268607 
L 151.46425 175.579327 
L 149.475488 173.702201 
L 147.51153 171.650304 
L 145.595798 169.441093 
L 143.75321 167.096624 
L 142.009811 164.643594 
L 140.392294 162.113176 
L 138.927396 159.540614 
L 137.641203 156.964549 
L 136.558371 154.426096 
L 135.701299 151.967683 
L 135.089305 149.631697 
L 134.737835 147.459026 
L 134.657779 145.487588 
L 134.854916 143.750933 
L 135.329561 142.277046 
L 136.076415 141.087421 
L 137.084651 140.196478 
L 138.338237 139.611362 
L 139.816455 139.33211 
L 141.494606 139.352157 
L 143.344841 139.65912 
L 145.337066 140.235778 
L 147.439876 141.061151 
L 149.621454 142.111606 
L 151.850398 143.361912 
L 154.096457 144.786184 
L 156.331121 146.358681 
L 158.52809 148.054442 
L 160.663596 149.849753 
L 164.668852 153.652134 
L 168.211942 157.609627 
L 169.779687 159.60536 
L 171.200126 161.593659 
L 172.467291 163.562183 
L 173.577007 165.499763 
L 174.526628 167.39621 
L 175.314794 169.242138 
L 175.941197 171.028795 
L 176.40637 172.7479 
L 176.711501 174.391506 
L 176.858273 175.951867 
L 176.848736 177.421327 
L 176.685201 178.792223 
L 176.370172 180.056798 
L 175.906298 181.20714 
L 175.296362 182.23513 
L 174.543289 183.132406 
L 173.650185 183.890358 
L 172.620404 184.500135 
L 171.457638 184.952688 
L 170.166026 185.238843 
L 168.750301 185.349404 
L 167.21594 185.275317 
L 165.569346 185.007858 
L 163.818042 184.538903 
L 161.970874 183.861234 
L 160.038218 182.968917 
L 158.032186 181.857742 
L 155.966812 180.525714 
L 153.858217 178.97359 
L 151.724724 177.205444 
L 149.586916 175.229233 
L 147.467613 173.057332 
L 145.391751 170.706986 
L 143.386145 168.200637 
L 141.479123 165.56608 
L 139.700016 162.836368 
L 138.078517 160.049445 
L 136.643907 157.247479 
L 135.424172 154.475855 
L 134.445058 151.781885 
L 133.729095 149.213268 
L 133.294664 146.816384 
L 133.155148 144.634537 
L 133.318255 142.706283 
L 133.785542 141.063955 
L 134.552196 139.732513 
L 135.607091 138.728803 
L 136.933117 138.061275 
L 138.507767 137.730152 
L 140.303938 137.728022 
L 142.290889 138.040766 
L 144.435295 138.64873 
L 146.702333 139.528014 
L 149.056727 140.651794 
L 151.463715 141.991569 
L 153.889889 143.518269 
L 156.303878 145.203186 
L 158.676874 147.018692 
L 160.982989 148.938761 
L 163.199464 150.939303 
L 165.306728 152.998325 
L 167.288358 155.095975 
L 169.130931 157.214468 
L 170.823816 159.337953 
L 172.358912 161.452323 
L 173.73036 163.545003 
L 174.934244 165.604731 
L 175.968291 167.621336 
L 176.831584 169.585523 
L 177.524296 171.488684 
L 178.047448 173.322709 
L 178.402694 175.079831 
L 178.592147 176.752477 
L 178.618221 178.333143 
L 178.483522 179.814279 
L 178.19076 181.188194 
L 177.742696 182.446978 
L 177.14212 183.582434 
L 176.391861 184.586031 
L 175.494815 185.448878 
L 174.45402 186.161713 
L 173.272737 186.714929 
L 171.954578 187.098621 
L 170.503648 187.302676 
L 168.924714 187.316908 
L 167.223402 187.131238 
L 165.406409 186.735943 
L 163.481741 186.121961 
L 161.458948 185.281274 
L 159.349382 184.207366 
L 157.166425 182.895751 
L 154.925721 181.344569 
L 152.645354 179.55524 
L 150.345981 177.53314 
L 148.050878 175.288274 
L 145.7859 172.835901 
L 143.579301 170.197046 
L 141.461421 167.398841 
L 139.464206 164.474626 
L 137.620562 161.463743 
L 135.963542 158.410968 
L 134.525387 155.365558 
L 133.336451 152.379909 
L 132.424065 149.507867 
L 131.8114 146.802783 
L 131.516406 144.315423 
L 131.550902 142.091906 
L 131.91989 140.171805 
L 132.621152 138.586599 
L 133.645178 137.358583 
L 134.975415 136.500326 
L 136.588853 136.014699 
L 138.456874 135.895441 
L 140.546332 136.128177 
L 142.820759 136.69176 
L 145.241639 137.559814 
L 147.769657 138.702325 
L 150.365856 140.087167 
L 152.992658 141.681469 
L 155.614706 143.452757 
L 158.199501 145.369847 
L 160.717857 147.403487 
L 163.144158 149.526755 
L 165.456446 151.715266 
L 167.636377 153.947202 
L 169.669058 156.203225 
L 171.542799 158.466303 
L 173.248805 160.72147 
L 174.780844 162.955573 
L 176.134885 165.157001 
L 177.308755 167.315414 
L 178.301792 169.421499 
L 179.114539 171.466736 
L 179.748454 173.443186 
L 180.205663 175.343304 
L 180.488741 177.159776 
L 180.600537 178.885365 
L 180.544031 180.512789 
L 180.322228 182.034599 
L 179.938082 183.443088 
L 179.394462 184.730204 
L 178.69414 185.887482 
L 177.83982 186.905993 
L 176.834186 187.776311 
L 175.67999 188.488501 
L 174.380167 189.03214 
L 172.93797 189.396365 
L 171.357152 189.569967 
L 169.642158 189.541532 
L 167.798355 189.299644 
L 165.832287 188.833152 
L 163.751945 188.131522 
L 161.567054 187.18527 
L 159.289373 185.986491 
L 156.932981 184.529476 
L 154.514548 182.811421 
L 152.053566 180.833202 
L 149.572516 178.600191 
L 147.096943 176.123079 
L 144.655421 173.41864 
L 142.279357 170.510366 
L 140.002633 167.428897 
L 137.861044 164.212152 
L 135.891531 160.905083 
L 134.131216 157.558974 
L 132.616253 154.230265 
L 131.380544 150.978887 
L 130.454382 147.866178 
L 129.863104 144.952495 
L 129.625845 142.294672 
L 129.7545 139.943555 
L 130.252962 137.94178 
L 131.116734 136.322037 
L 132.332932 135.105939 
L 133.880701 134.303591 
L 135.732005 133.913871 
L 137.852744 133.925344 
L 140.204095 134.317691 
L 142.743989 135.063475 
L 145.428618 136.130072 
L 148.213881 137.481587 
L 151.056684 139.08063 
L 153.916051 140.889831 
L 156.753997 142.873059 
L 159.536164 144.996317 
L 162.232226 147.228326 
L 164.81607 149.540844 
L 167.265798 151.908752 
L 169.563584 154.309981 
L 171.695408 156.725307 
L 173.650715 159.138078 
L 175.42202 161.533895 
L 177.004496 163.900279 
L 178.395552 166.22635 
L 179.594428 168.50251 
L 180.601811 170.720173 
L 181.419495 172.8715 
L 182.050065 174.94918 
L 182.496633 176.946232 
L 182.762611 178.855825 
L 182.851528 180.671131 
L 182.766883 182.385185 
L 182.512043 183.99077 
L 182.09017 185.480308 
L 181.504186 186.845772 
L 180.756774 188.078602 
L 179.850409 189.169646 
L 178.787415 190.109109 
L 177.570066 190.886527 
L 176.200701 191.490765 
L 174.68189 191.910054 
L 173.016612 192.132055 
L 171.208485 192.143994 
L 169.262012 191.932845 
L 167.182867 191.485592 
L 164.978206 190.789586 
L 162.657003 189.832996 
L 160.230401 188.605376 
L 157.712064 187.098342 
L 155.118524 185.306376 
L 152.469488 183.227718 
L 149.78809 180.86535 
L 147.101051 178.228007 
L 144.438718 175.331161 
L 141.83493 172.197901 
L 139.326692 168.859593 
L 136.953618 165.356223 
L 134.757114 161.736309 
L 132.779318 158.056268 
L 131.061792 154.379189 
L 129.644026 150.772984 
L 128.561821 147.307975 
L 127.845653 144.054044 
L 127.519121 141.077539 
L 127.59763 138.438198 
L 128.087389 136.186358 
L 128.984858 134.360719 
L 130.276677 132.986873 
L 131.9401 132.076703 
L 133.943916 131.6287 
L 136.249756 131.629083 
L 138.813703 132.05358 
L 141.588068 132.86963 
L 144.523195 134.038779 
L 147.569194 135.519044 
L 150.677487 137.267067 
L 153.802106 139.239939 
L 156.900713 141.396621 
L 159.935308 143.698951 
L 162.872664 146.112276 
L 165.684499 148.605737 
L 168.347433 151.152308 
L 170.842767 153.728622 
L 173.156143 156.314675 
L 175.277112 158.893449 
L 177.198646 161.450507 
L 178.916647 163.973573 
L 180.429439 166.452143 
L 181.737301 168.877121 
L 182.84202 171.240494 
L 183.746495 173.53504 
L 184.45439 175.754087 
L 184.969825 177.891286 
L 185.297127 179.940431 
L 185.440622 181.895287 
L 185.404475 183.749453 
L 185.192568 185.496226 
L 184.808418 187.12849 
L 184.255139 188.638609 
L 183.535424 190.018331 
L 182.651573 191.258708 
L 181.605548 192.350018 
L 180.399057 193.281715 
L 179.033675 194.042386 
L 177.510995 194.619744 
L 175.832814 195.000654 
L 174.001355 195.171202 
L 172.019526 195.116824 
L 169.891213 194.822513 
L 167.62162 194.273105 
L 165.217635 193.453685 
L 162.68823 192.350113 
L 160.044886 190.949682 
L 157.302024 189.241939 
L 154.477427 187.219644 
L 151.59263 184.879875 
L 148.673236 182.225233 
L 145.749135 179.265112 
L 142.85456 176.016931 
L 140.027946 172.507244 
L 137.311541 168.772581 
L 134.750719 164.859869 
L 132.392988 160.826292 
L 130.286659 156.738452 
L 128.479232 152.670745 
L 127.015536 148.702947 
L 125.935742 144.917078 
L 125.273357 141.393756 
L 125.053381 138.208296 
L 125.290768 135.42693 
L 125.989347 133.103502 
L 127.141316 131.276983 
L 128.727368 129.970038 
L 130.717449 129.188778 
L 133.072091 128.923639 
L 135.744183 129.151239 
L 138.681056 129.836943 
L 141.826687 130.937814 
L 145.123868 132.405644 
L 148.516209 134.189795 
L 151.949847 136.239653 
L 155.374822 138.506575 
L 158.746069 140.945301 
L 162.024054 143.514847 
L 165.17507 146.178941 
L 168.171246 148.906103 
L 170.990331 151.669448 
L 173.615303 154.446316 
L 176.033862 157.217789 
L 178.237855 159.968169 
L 180.222668 162.684449 
L 181.986626 165.355819 
L 183.530409 167.973207 
L 184.856522 170.52888 
L 185.968802 173.016095 
L 186.871997 175.4288 
L 187.571388 177.761381 
L 188.072486 180.008444 
L 188.380769 182.164632 
L 188.501478 184.224465 
L 188.439465 186.182194 
L 188.199074 188.03168 
L 187.784071 189.766266 
L 187.197605 191.378677 
L 186.442207 192.860906 
L 185.519818 194.204122 
L 184.431848 195.398574 
L 183.179266 196.433512 
L 181.762727 197.297119 
L 180.182724 197.976464 
L 178.439779 198.457487 
L 176.534678 198.725019 
L 174.468736 198.762867 
L 172.244118 198.553961 
L 169.864198 198.080603 
L 167.333968 197.32482 
L 164.660494 196.268871 
L 161.85341 194.8959 
L 158.925437 193.190788 
L 155.892923 191.141193 
L 152.776367 188.738793 
L 149.60089 185.980709 
L 146.396625 182.871063 
L 143.198954 179.422597 
L 140.048542 175.658239 
L 136.991094 171.612451 
L 134.07678 167.332178 
L 131.359268 162.877188 
L 128.894341 158.319595 
L 126.738101 153.742407 
L 124.944818 149.237011 
L 123.564514 144.899634 
L 122.640446 140.826962 
L 122.206673 137.111246 
L 122.285926 133.835326 
L 122.887999 131.068111 
L 124.008818 128.860984 
L 125.630311 127.24553 
L 127.721113 126.232807 
L 130.238027 125.814164 
L 133.128123 125.963426 
L 136.331264 126.640091 
L 139.782843 127.793108 
L 143.416507 129.364808 
L 147.166673 131.294592 
L 150.970692 133.522104 
L 154.770576 135.989734 
L 158.51424 138.64438 
L 162.156278 141.438524 
L 165.658308 144.330719 
L 168.988965 147.285588 
L 172.123603 150.273508 
L 175.043784 153.270058 
L 177.736643 156.25536 
L 180.194158 159.213391 
L 182.41241 162.131292 
L 184.390839 164.998751 
L 186.131552 167.807438 
L 187.638676 170.550529 
L 188.917784 173.222295 
L 189.975393 175.817761 
L 190.818535 178.332433 
L 191.454392 180.762057 
L 191.890006 183.102428 
L 192.13204 185.349228 
L 192.186601 187.497878 
L 192.059101 189.543411 
L 191.754171 191.480351 
L 191.275606 193.302602 
L 190.626345 195.003327 
L 189.808484 196.574843 
L 188.823313 198.008506 
L 187.671391 199.294597 
L 186.352634 200.422215 
L 184.86645 201.379174 
L 183.211892 202.151918 
L 181.387857 202.725447 
L 179.393319 203.083293 
L 177.227611 203.20753 
L 174.890755 203.078858 
L 172.38385 202.676783 
L 169.709518 201.97991 
L 166.872412 200.966392 
L 163.879788 199.614564 
L 160.742122 197.903796 
L 157.473781 195.815602 
L 154.093701 193.335015 
L 150.626054 190.452239 
L 147.10085 187.164546 
L 143.554411 183.478353 
L 140.02964 179.411361 
L 136.576003 174.994577 
L 133.24912 170.273995 
L 130.109891 165.311624 
L 127.223085 160.185617 
L 124.655371 154.989151 
L 122.472808 149.827919 
L 120.737907 144.816149 
L 119.506428 140.071309 
L 118.824165 135.707854 
L 118.723995 131.830618 
L 119.223502 128.528516 
L 120.323445 125.869337 
L 122.007253 123.896215 
L 124.241621 122.626195 
L 126.978174 122.050962 
L 130.156013 122.139526 
L 133.704884 122.842392 
L 137.548672 124.096587 
L 141.608906 125.830916 
L 145.807989 127.970887 
L 150.071982 130.442892 
L 154.332776 133.177441 
L 158.529647 136.111362 
L 162.610181 139.189056 
L 166.530644 142.362951 
L 170.255901 145.593346 
L 173.758975 148.847835 
L 177.020351 152.100482 
L 180.027134 155.330889 
L 182.772119 158.523244 
L 185.252846 161.665435 
L 187.47069 164.748244 
L 189.430009 167.764665 
L 191.137366 170.709324 
L 192.600856 173.57801 
L 193.829512 176.367292 
L 194.832811 179.074219 
L 195.620263 181.69608 
L 196.20108 184.230207 
L 196.583912 186.67382 
L 196.776649 189.023895 
L 196.78627 191.277042 
L 196.618742 193.4294 
L 196.278956 195.47653 
L 195.770696 197.413308 
L 195.096635 199.233814 
L 194.25836 200.931218 
L 193.256412 202.497651 
L 192.09036 203.924073 
L 190.758887 205.200136 
L 189.259907 206.314042 
L 187.590707 207.252397 
L 185.748123 208.000076 
L 183.728752 208.540107 
L 181.529215 208.85358 
L 179.146461 208.919611 
L 176.578149 208.715371 
L 173.823084 208.216227 
L 170.881746 207.396017 
L 167.756894 206.227513 
L 164.454263 204.683117 
L 160.983342 202.735847 
L 157.358222 200.36066 
L 153.598499 197.536163 
L 149.730173 194.246713 
L 145.786499 190.48491 
L 141.808697 186.254394 
L 137.846425 181.572801 
L 133.957874 176.474647 
L 130.209374 171.013789 
L 126.67435 165.26506 
L 123.431555 159.324617 
L 120.562494 153.308546 
L 118.148111 147.349439 
L 116.264837 141.59082 
L 114.980282 136.179671 
L 114.348929 131.25764 
L 114.408238 126.951843 
L 115.175635 123.366355 
L 116.646737 120.575526 
L 118.795066 118.619978 
L 121.573318 117.505753 
L 124.916055 117.206583 
L 128.743505 117.668749 
L 132.96605 118.817696 
L 137.488958 120.565393 
L 142.216902 122.817509 
L 147.057938 125.479696 
L 151.926711 128.462499 
L 156.746781 131.684774 
L 161.452073 135.075645 
L 165.987532 138.57524 
L 170.309115 142.134487 
L 174.38327 145.714276 
L 178.186053 149.284252 
L 181.702021 152.821452 
L 184.923024 156.308948 
L 187.846967 159.734584 
L 190.47662 163.089867 
L 192.818513 166.369035 
L 194.881949 169.568295 
L 196.678133 172.685222 
L 198.219435 175.718292 
L 199.51877 178.666526 
L 200.589092 181.529222 
L 201.442986 184.30576 
L 202.092359 186.995448 
L 202.548192 189.597405 
L 202.820369 192.110472 
L 202.917551 194.533127 
L 202.847098 196.86341 
L 202.615022 199.098847 
L 202.225974 201.236371 
L 201.68324 203.272228 
L 200.988773 205.201884 
L 200.143222 207.019906 
L 199.145983 208.719835 
L 197.995262 210.294044 
L 196.688147 211.733573 
L 195.220697 213.027955 
L 193.588052 214.165018 
L 191.784561 215.130686 
L 189.803943 215.908759 
L 187.639487 216.480707 
L 185.284298 216.825475 
L 182.731601 216.919312 
L 179.975124 216.735677 
L 177.00956 216.245219 
L 173.831138 215.415916 
L 170.438308 214.213397 
L 166.832552 212.60154 
L 163.019338 210.543425 
L 159.009198 208.00272 
L 154.818927 204.945601 
L 150.472863 201.343275 
L 146.004181 197.175139 
L 141.456104 192.432552 
L 136.882898 187.123076 
L 132.350476 181.274929 
L 127.9364 174.941204 
L 123.729061 168.203256 
L 119.825834 161.172493 
L 116.330065 153.989835 
L 113.346842 146.822107 
L 110.977695 139.855043 
L 109.31454 133.283017 
L 108.43339 127.296269 
L 108.388493 122.067034 
L 109.207622 117.73638 
L 110.889172 114.403702 
L 113.401476 112.120426 
L 116.684509 110.88878 
L 120.653752 110.665578 
L 125.205729 111.37008 
L 130.224531 112.894444 
L 135.588585 115.115028 
L 141.176978 117.903033 
L 146.874856 121.133359 
L 152.577566 124.691094 
L 158.193458 128.475547 
L 163.645415 132.402083 
L 168.871269 136.402226 
L 173.823357 140.422548 
L 178.467446 144.422857 
L 182.78127 148.374059 
L 186.752852 152.256002 
L 190.378787 156.055474 
L 193.66256 159.764464 
L 196.613 163.378726 
L 199.24289 166.89663 
L 201.567765 170.318279 
L 203.604892 173.644858 
L 205.372427 176.878158 
L 206.888734 180.020248 
L 208.171848 183.073252 
L 209.239068 186.039203 
L 210.106643 188.919954 
L 210.789561 191.717117 
L 211.301399 194.432037 
L 211.654232 197.06576 
L 211.858591 199.619027 
L 211.923443 202.092248 
L 211.856209 204.485482 
L 211.662784 206.798413 
L 211.347583 209.030306 
L 210.913575 211.179966 
L 210.362339 213.245673 
L 209.6941 215.225111 
L 208.907776 217.115276 
L 208.00102 218.912375 
L 206.970254 220.611692 
L 205.810705 222.207444 
L 204.51644 223.692606 
L 203.080404 225.058708 
L 201.494462 226.295607 
L 199.749452 227.391221 
L 197.83526 228.331236 
L 195.74091 229.098775 
L 193.454702 229.674048 
L 190.96439 230.033969 
L 188.257432 230.15178 
L 185.321309 229.996685 
L 182.143969 229.533534 
L 178.71439 228.722611 
L 175.0233 227.519597 
L 171.0641 225.875799 
L 166.833995 223.738764 
L 162.335369 221.053443 
L 157.577411 217.764078 
L 152.577991 213.816991 
L 147.36572 209.164473 
L 141.982121 203.769888 
L 136.483744 197.613999 
L 130.943976 190.702328 
L 125.45424 183.073063 
L 120.124161 174.80465 
L 115.080282 166.021832 
L 110.462902 156.898554 
L 106.420754 147.656084 
L 103.103505 138.554995 
L 100.652394 129.880488 
L 99.189786 121.921757 
L 98.808791 114.947661 
L 99.564353 109.182228 
L 101.467177 104.784079 
L 104.48153 101.833476 
L 108.52735 100.329177 
L 113.486368 100.195211 
L 119.211327 101.295667 
L 125.536915 103.454208 
L 132.290983 106.474647 
L 139.304748 110.159435 
L 146.421101 114.324039 
L 153.500569 118.806387 
L 160.424886 123.47161 
L 167.098436 128.212956 
L 173.447979 132.950001 
L 179.421161 137.625265 
L 184.984233 142.200151 
L 190.119387 146.650835 
L 194.821983 150.96453 
L 199.097876 155.136309 
L 202.960969 159.166557 
L 206.431061 163.059017 
L 209.532007 166.819358 
L 212.290202 170.454172 
L 214.733354 173.970301 
L 216.889514 177.374421 
L 218.786347 180.672798 
L 220.450586 183.871171 
L 221.907651 186.974719 
L 223.181402 189.988072 
L 225.265785 195.760242 
L 226.859711 201.21563 
L 228.091804 206.376807 
L 229.483319 213.607105 
L 231.19565 224.416666 
L 232.48175 232.054012 
L 233.600053 237.240288 
L 234.484183 240.45113 
L 235.522435 243.467728 
L 236.756777 246.288744 
L 238.235887 248.907763 
L 240.017428 251.311169 
L 241.04269 252.425045 
L 242.170518 253.474992 
L 243.411781 254.455635 
L 244.778409 255.360259 
L 246.283483 256.180536 
L 247.94132 256.906187 
L 249.767551 257.524592 
L 251.779187 258.020312 
L 253.994658 258.374541 
L 256.433823 258.56445 
L 259.117918 258.56244 
L 262.069444 258.335294 
L 265.311935 257.843235 
L 268.869603 257.038923 
L 272.766776 255.866437 
L 277.027095 254.260323 
L 281.67239 252.144859 
L 286.721132 249.43374 
L 292.1864 246.03049 
L 298.073239 241.830008 
L 304.375352 236.721793 
L 311.071088 230.595474 
L 318.118776 223.349322 
L 325.451603 214.902325 
L 332.972438 205.210046 
L 340.549269 194.283823 
L 348.012248 182.211708 
L 355.153593 169.178082 
L 361.731767 155.477258 
L 367.481138 141.515299 
L 372.127725 127.794534 
L 375.410488 114.877654 
L 377.10609 103.333019 
L 377.053634 93.668877 
L 375.174929 86.269416 
L 371.486147 81.347277 
L 366.098202 78.923868 
L 359.205608 78.841298 
L 351.0661 80.800981 
L 341.975036 84.41759 
L 332.239151 89.275095 
L 322.153504 94.974088 
L 311.98406 101.16444 
L 301.95675 107.562294 
L 292.252566 113.953869 
L 274.315793 126.17673 
L 258.793371 137.22358 
L 251.993305 142.26279 
L 245.819764 146.992219 
L 240.243896 151.432114 
L 235.227483 155.60578 
L 230.726332 159.536845 
L 226.69294 163.247571 
L 223.078523 166.757923 
L 219.834528 170.085147 
L 214.270872 176.245187 
L 209.651114 181.811595 
L 200.321135 193.366786 
L 196.867434 197.040289 
L 195.10726 198.658261 
L 193.299604 200.120947 
L 191.427491 201.419414 
L 189.475388 202.54316 
L 187.429132 203.480047 
L 185.275912 204.216232 
L 183.004301 204.736121 
L 180.604342 205.022356 
L 178.067712 205.055855 
L 175.387945 204.815928 
L 172.560748 204.280505 
L 169.584386 203.4265 
L 166.46016 202.230357 
L 163.192962 200.668815 
L 159.7919 198.71994 
L 156.270978 196.364442 
L 152.649799 193.587322 
L 148.954247 190.379819 
L 145.217083 186.741638 
L 141.478386 182.683344 
L 137.785735 178.228782 
L 134.194034 173.417286 
L 130.764864 168.305374 
L 127.565275 162.967588 
L 124.665955 157.496136 
L 122.138762 151.999005 
L 120.053675 146.596405 
L 118.475335 141.415549 
L 117.459389 136.584059 
L 117.048969 132.22257 
L 117.27164 128.437274 
L 118.137166 125.313298 
L 119.63636 122.909731 
L 121.741171 121.256897 
L 124.406031 120.356161 
L 127.570307 120.18215 
L 131.161613 120.686936 
L 135.099622 121.805518 
L 139.300021 123.461813 
L 143.678279 125.574475 
L 148.152941 128.061972 
L 152.648302 130.846607 
L 157.096346 133.857345 
L 161.437982 137.031499 
L 165.623621 140.315429 
L 169.613194 143.664482 
L 173.375752 147.042393 
L 176.888745 150.420373 
L 180.137103 153.776031 
L 183.112223 157.092283 
L 185.810911 160.35631 
L 188.234366 163.558627 
L 190.387217 166.692288 
L 192.276654 169.752215 
L 193.911661 172.734661 
L 195.302353 175.636779 
L 196.459414 178.456287 
L 197.393636 181.191203 
L 198.11554 183.839643 
L 198.635088 186.399656 
L 198.961444 188.869094 
L 199.102815 191.245497 
L 199.066322 193.525995 
L 198.857929 195.70721 
L 198.482393 197.785158 
L 197.943253 199.75515 
L 197.242836 201.611682 
L 196.382288 203.348319 
L 195.361623 204.957564 
L 194.17979 206.430716 
L 192.834764 207.757724 
L 191.323648 208.927024 
L 189.642816 209.925372 
L 187.788069 210.737684 
L 185.754839 211.346873 
L 183.538434 211.733718 
L 181.134334 211.876768 
L 178.538553 211.752304 
L 175.748077 211.334401 
L 172.761378 210.595114 
L 169.579038 209.504847 
L 166.204458 208.032956 
L 162.644685 206.14865 
L 158.911324 203.822251 
L 155.021534 201.026884 
L 150.999068 197.74063 
L 146.875292 193.949156 
L 142.690118 189.648781 
L 138.492718 184.849854 
L 134.341907 179.580205 
L 130.30601 173.888348 
L 126.462079 167.845955 
L 122.894282 161.549058 
L 119.691393 155.117433 
L 116.943349 148.691671 
L 114.736992 142.427697 
L 113.151236 136.488848 
L 112.252049 131.036041 
L 112.087734 126.21703 
L 112.685058 122.156034 
L 114.046708 118.945141 
L 116.15043 116.638671 
L 118.950004 115.251242 
L 122.377942 114.759635 
L 126.3496 115.107965 
L 130.768218 116.215177 
L 135.530338 117.983642 
L 140.531065 120.3077 
L 145.668743 123.081189 
L 150.84875 126.203391 
L 155.986267 129.583148 
L 161.008022 133.141223 
L 165.85309 136.811172 
L 170.472911 140.539073 
L 174.830707 144.282503 
L 178.900475 148.009076 
L 182.66573 151.694814 
L 186.118118 155.322531 
L 189.256013 158.880356 
L 192.083175 162.360444 
L 194.607507 165.757904 
L 196.839946 169.069943 
L 198.793501 172.295192 
L 200.482437 175.433197 
L 201.921591 178.484043 
L 203.125828 181.448076 
L 204.1096 184.325708 
L 204.886608 187.117275 
L 205.46955 189.822932 
L 205.869937 192.442577 
L 206.097963 194.97579 
L 206.162432 197.421776 
L 206.070705 199.779309 
L 205.82869 202.046674 
L 205.440845 204.221603 
L 204.910199 206.301193 
L 204.238382 208.281822 
L 203.425666 210.159042 
L 202.471013 211.927455 
L 201.372128 213.58058 
L 200.12552 215.110687 
L 198.726571 216.508618 
L 197.169615 217.763582 
L 195.448042 218.862936 
L 193.55441 219.791938 
L 191.480601 220.533489 
L 189.218009 221.067875 
L 186.757781 221.372507 
L 184.091122 221.421689 
L 181.209686 221.186445 
L 178.106059 220.634433 
L 174.774365 219.730003 
L 171.211008 218.43447 
L 167.415568 216.706682 
L 163.391863 214.503984 
L 159.149183 211.7837 
L 154.703681 208.505234 
L 150.07988 204.632922 
L 145.312239 200.139677 
L 140.446655 195.011435 
L 135.541746 189.252263 
L 130.669716 182.889823 
L 125.916511 175.980677 
L 121.381026 168.614663 
L 117.173053 160.917395 
L 113.409801 153.049864 
L 110.210902 145.204226 
L 107.692066 137.59526 
L 105.95778 130.447668 
L 105.093719 123.980204 
L 105.15972 118.388528 
L 106.184246 113.829177 
L 108.161148 110.407184 
L 111.049239 108.169301 
L 114.774811 107.103772 
L 119.23674 107.14633 
L 124.313507 108.191015 
L 129.871203 110.10369 
L 135.771588 112.736018 
L 141.8794 115.938021 
L 148.068328 119.568003 
L 154.225397 123.499315 
L 160.253681 127.624051 
L 166.073533 131.854182 
L 171.622574 136.120789 
L 176.854765 140.372096 
L 181.738856 144.570878 
L 186.256481 148.691713 
L 190.400129 152.718363 
L 194.171109 156.641467 
L 197.577662 160.456607 
L 200.633241 164.162767 
L 203.35502 167.76116 
L 205.76262 171.254347 
L 207.877065 174.645623 
L 209.719928 177.938588 
L 211.312665 181.136872 
L 212.6761 184.243967 
L 213.830049 187.263125 
L 214.79305 190.19732 
L 215.58218 193.049228 
L 216.212952 195.82123 
L 216.699258 198.515427 
L 217.285925 203.677495 
L 217.421257 208.547119 
L 217.160218 213.1321 
L 216.535652 217.436147 
L 215.560241 221.45818 
L 214.228113 225.191049 
L 213.42165 226.944679 
L 212.515926 228.619535 
L 211.505381 230.211968 
L 210.383404 231.717392 
L 209.142326 233.130112 
L 207.773409 234.443127 
L 206.26684 235.647899 
L 204.611724 236.734079 
L 202.796094 237.689191 
L 200.806931 238.498272 
L 198.630212 239.143458 
L 196.251002 239.603525 
L 193.653584 239.853379 
L 190.821676 239.863518 
L 187.738729 239.599475 
L 184.388354 239.02129 
L 180.754905 238.083047 
L 176.824251 236.732573 
L 172.584799 234.911414 
L 168.028789 232.55523 
L 163.153933 229.594832 
L 157.965401 225.958108 
L 152.478195 221.573134 
L 146.719847 216.372781 
L 140.733383 210.301072 
L 134.58033 203.321438 
L 128.343496 195.426729 
L 122.12906 186.65044 
L 116.067406 177.077999 
L 110.312028 166.856339 
L 105.035851 156.199313 
L 100.424458 145.386292 
L 96.666072 134.751623 
L 93.938751 124.663888 
L 92.395884 115.496006 
L 92.151793 107.589779 
L 93.269568 101.220659 
L 95.753263 96.569405 
L 99.545902 93.706282 
L 104.533789 92.590688 
L 110.556389 93.085458 
L 117.420129 94.981871 
L 124.913904 98.029585 
L 132.82412 101.965758 
L 140.947568 106.539033 
L 149.101105 111.526196 
L 157.12783 116.741247 
L 164.899995 122.038036 
L 172.319254 127.308238 
L 179.31496 132.476543 
L 185.841227 137.494599 
L 191.873355 142.33484 
L 197.404082 146.984878 
L 202.439964 151.442791 
L 206.998081 155.713395 
L 211.103166 159.805454 
L 214.785187 163.729679 
L 218.077363 167.497379 
L 221.014595 171.119594 
L 223.632246 174.606589 
L 225.965228 177.967595 
L 228.047344 181.210715 
L 231.586113 187.37017 
L 234.483634 193.128707 
L 238.063471 201.077025 
L 242.245601 210.461056 
L 244.375017 214.635891 
L 246.676137 218.449821 
L 247.922582 220.213467 
L 249.249395 221.875415 
L 250.668923 223.429615 
L 252.193662 224.868659 
L 253.836352 226.183563 
L 255.610042 227.363526 
L 257.528143 228.395649 
L 259.604434 229.264628 
L 261.853033 229.952403 
L 264.288323 230.43779 
L 266.924798 230.696096 
L 269.776846 230.698726 
L 272.858418 230.412827 
L 276.182579 229.800998 
L 279.760907 228.821127 
L 283.602715 227.426443 
L 287.714052 225.565884 
L 292.096481 223.18492 
L 296.745588 220.227006 
L 301.649235 216.63585 
L 306.785576 212.358693 
L 312.120896 207.350778 
L 317.607403 201.581084 
L 323.181162 195.039277 
L 328.760457 187.743561 
L 334.244947 179.74878 
L 339.516049 171.153729 
L 344.439012 162.106206 
L 348.867042 152.804138 
L 352.647707 143.491122 
L 355.631478 134.445292 
L 357.6819 125.961456 
L 358.686413 118.327926 
L 358.566494 111.800989 
L 357.285652 106.58104 
L 354.853987 102.794578 
L 351.328484 100.485276 
L 346.808932 99.615485 
L 341.430084 100.077286 
L 335.351244 101.710368 
L 328.744782 104.323009 
L 321.785006 107.712527 
L 314.638555 111.682452 
L 307.45701 116.054899 
L 300.371975 120.677878 
L 293.492515 125.428118 
L 286.904582 130.21051 
L 280.671961 134.955325 
L 274.838236 139.614295 
L 269.429355 144.156346 
L 264.456437 148.563529 
L 259.918565 152.827454 
L 255.80542 156.946352 
L 252.099622 160.922775 
L 248.778773 164.761873 
L 245.817156 168.470171 
L 243.187133 172.054718 
L 240.860255 175.52255 
L 238.808116 178.880362 
L 237.003003 182.134338 
L 235.41835 185.290079 
L 234.029062 188.352597 
L 231.744609 194.215306 
L 229.983457 199.75251 
L 228.607328 204.988174 
L 227.024303 212.318158 
L 223.403223 230.97741 
L 222.491485 234.509379 
L 221.447349 237.830263 
L 220.226724 240.940128 
L 218.780697 243.834238 
L 217.053081 246.501153 
L 216.063507 247.743335 
L 214.977876 248.919909 
L 213.785969 250.026092 
L 212.476616 251.055888 
L 211.03761 252.00185 
L 209.455622 252.854787 
L 207.716131 253.603411 
L 205.803353 254.233932 
L 203.700199 254.729562 
L 201.388261 255.069953 
L 198.84784 255.230537 
L 196.058032 255.181778 
L 192.99691 254.888348 
L 189.641812 254.308222 
L 185.9698 253.391764 
L 181.958314 252.080834 
L 177.58611 250.308048 
L 172.834534 247.996343 
L 167.689221 245.05909 
L 162.142304 241.401079 
L 156.195213 236.920813 
L 149.862088 231.51463 
L 143.173826 225.083258 
L 136.182618 217.541347 
L 128.966718 208.830348 
L 121.634949 198.934642 
L 114.330202 187.900022 
L 107.230896 175.852434 
L 100.5492 163.013563 
L 94.524808 149.708525 
L 89.413401 136.360533 
L 85.469705 123.468424 
L 82.926242 111.566043 
L 81.970234 101.167262 
L 82.722231 92.705642 
L 85.220443 86.481206 
L 89.414047 82.626517 
L 95.167038 81.099727 
L 102.271933 81.704988 
L 110.470629 84.133423 
L 119.4785 88.01368 
L 129.007823 92.960788 
L 138.787425 98.615111 
L 148.576885 104.667595 
L 158.174884 110.871497 
L 167.42237 117.043324 
L 176.201681 123.056668 
L 184.432975 128.832406 
L 192.069134 134.327873 
L 199.090098 139.526739 
L 205.497266 144.430408 
L 211.308365 149.051259 
L 216.552987 153.407637 
L 221.268852 157.520341 
L 225.498799 161.410319 
L 229.288407 165.097249 
L 232.684191 168.598761 
L 235.732263 171.93009 
L 240.962289 178.130869 
L 245.310284 183.774146 
L 254.128602 195.656612 
L 257.415068 199.516633 
L 259.09613 201.241325 
L 260.827172 202.820447 
L 262.625088 204.245656 
L 264.505583 205.507032 
L 266.483257 206.592969 
L 268.57165 207.49006 
L 270.783233 208.182982 
L 273.129346 208.654412 
L 275.620067 208.884964 
L 278.264016 208.853194 
L 281.068067 208.535682 
L 284.036982 207.907238 
L 287.172938 206.941264 
L 290.47497 205.61033 
L 293.938299 203.887003 
L 297.553577 201.745001 
L 301.306064 199.160708 
L 305.17476 196.115082 
L 309.131552 192.595974 
L 313.140442 188.600805 
L 317.156963 184.139497 
L 321.127881 179.237469 
L 324.991334 173.938407 
L 328.677546 168.306422 
L 332.11022 162.42716 
L 335.208721 156.407382 
L 337.891057 150.372609 
L 340.077559 144.462628 
L 341.695097 138.824899 
L 342.68149 133.60625 
L 342.989729 128.943654 
L 342.591542 124.955109 
L 341.479886 121.731788 
L 339.670043 119.332488 
L 337.199146 117.781097 
L 334.124177 117.067309 
L 330.518658 117.150286 
L 326.468412 117.96458 
L 322.06685 119.427317 
L 317.410252 121.445673 
L 312.593424 123.923767 
L 307.706051 126.768364 
L 302.82989 129.893106 
L 298.036864 133.221207 
L 293.388015 136.686778 
L 288.933196 140.235058 
L 284.711358 143.821841 
L 280.751279 147.412405 
L 277.072587 150.980187 
L 273.686939 154.50539 
L 270.599275 157.973641 
L 267.80904 161.374795 
L 265.311353 164.701898 
L 263.09806 167.950336 
L 261.158673 171.117149 
L 259.481179 174.200497 
L 258.052726 177.199249 
L 256.860182 180.112676 
L 255.890596 182.940218 
L 255.131556 185.681314 
L 254.571469 188.335272 
L 254.199767 190.901162 
L 254.007055 193.377737 
L 253.985213 195.763352 
L 254.127458 198.055895 
L 254.428371 200.252705 
L 254.883907 202.350492 
L 255.491378 204.345245 
L 256.249427 206.232126 
L 257.157984 208.00535 
L 258.218214 209.658052 
L 259.432447 211.182135 
L 260.804106 212.5681 
L 262.337603 213.804858 
L 264.038235 214.879537 
L 265.912033 215.777262 
L 267.965599 216.480943 
L 270.205885 216.971065 
L 272.63993 217.225489 
L 275.274526 217.219312 
L 278.115812 216.924778 
L 281.16877 216.311312 
L 284.436608 215.34571 
L 287.920032 213.992549 
L 291.616372 212.214904 
L 295.518577 209.975446 
L 299.614075 207.238023 
L 303.883524 203.969809 
L 308.299507 200.144078 
L 312.825228 195.743637 
L 317.413341 190.764835 
L 322.005059 185.221994 
L 326.529721 179.151902 
L 330.905056 172.617886 
L 335.038354 165.712783 
L 338.828739 158.560012 
L 342.170669 151.311982 
L 344.95863 144.145228 
L 347.092842 137.252054 
L 348.48555 130.829058 
L 349.067339 125.063545 
L 348.792732 120.119469 
L 347.644367 116.124834 
L 345.635149 113.162446 
L 342.808042 111.265386 
L 339.233482 110.417732 
L 335.004747 110.560126 
L 330.231875 111.598968 
L 325.034868 113.417576 
L 319.536922 115.887585 
L 313.858325 118.879172 
L 308.111456 122.26916 
L 302.397104 125.946625 
L 296.80215 129.816069 
L 291.398486 133.798517 
L 286.242965 137.831063 
L 281.378139 141.865402 
L 276.833526 145.865798 
L 272.627202 149.80688 
L 268.767536 153.671486 
L 265.254925 157.448733 
L 262.083444 161.132369 
L 259.242357 164.719436 
L 256.717445 168.209221 
L 254.492145 171.602459 
L 252.548512 174.900752 
L 250.867997 178.106157 
L 249.432077 181.220903 
L 248.222738 184.247199 
L 247.22285 187.187117 
L 246.416431 190.042518 
L 245.788838 192.815009 
L 245.326888 195.505914 
L 245.018931 198.116263 
L 244.854878 200.646773 
L 244.826204 203.097831 
L 244.925925 205.469478 
L 245.148571 207.761376 
L 245.49014 209.972768 
L 245.948052 212.102437 
L 246.521103 214.148637 
L 247.209421 216.109019 
L 248.014425 217.980546 
L 248.938782 219.759375 
L 249.986378 221.440736 
L 251.16228 223.018774 
L 252.472706 224.486374 
L 253.924991 225.834957 
L 255.527543 227.054243 
L 257.289796 228.131979 
L 259.222139 229.053643 
L 261.335817 229.802102 
L 263.642804 230.357252 
L 266.155616 230.695634 
L 268.887068 230.790036 
L 271.849935 230.609123 
L 275.056514 230.117114 
L 278.518047 229.273563 
L 282.243977 228.033319 
L 286.241012 226.346759 
L 290.511969 224.160431 
L 295.054355 221.418248 
L 299.858706 218.06344 
L 304.906669 214.041433 
L 310.168879 209.30387 
L 315.602745 203.813875 
L 321.15029 197.552588 
L 326.736313 190.52674 
L 332.267193 182.776769 
L 337.630771 174.384575 
L 342.697739 165.479597 
L 347.324981 156.241591 
L 351.361127 146.898387 
L 354.654357 137.717277 
L 357.062059 128.989535 
L 358.461564 121.008913 
L 358.760702 114.046542 
L 357.906763 108.325929 
L 355.892447 104.002338 
L 352.75778 101.150244 
L 348.587597 99.760996 
L 343.504971 99.750606 
L 337.661565 100.975536 
L 331.226363 103.253 
L 324.374247 106.382012 
L 317.275718 110.16201 
L 310.08864 114.407093 
L 302.952405 118.955161 
L 295.984543 123.672274 
L 289.279464 128.453193 
L 282.908912 133.219282 
L 276.923609 137.914891 
L 271.355651 142.503135 
L 266.221255 146.961705 
L 261.523593 151.279093 
L 257.25549 155.451413 
L 253.401889 159.479872 
L 249.942 163.368846 
L 246.851131 167.12448 
L 244.102192 170.753717 
L 241.666903 174.263651 
L 239.516746 177.661136 
L 237.623678 180.95256 
L 235.960657 184.143744 
L 234.50201 187.239917 
L 233.223667 190.245738 
L 231.120352 196.002414 
L 229.493429 201.441698 
L 228.212963 206.585993 
L 226.716599 213.788842 
L 223.522393 230.304149 
L 222.625016 233.874243 
L 221.601913 237.23252 
L 220.40939 240.379645 
L 218.999335 243.311706 
L 217.316759 246.018414 
L 216.353594 247.281672 
L 215.297277 248.480448 
L 214.137856 249.610277 
L 212.864459 250.665547 
L 211.465201 251.639273 
L 209.927103 252.522815 
L 208.236014 253.305553 
L 206.376544 253.974489 
L 204.33201 254.51379 
L 202.084411 254.904237 
L 199.614444 255.122604 
L 196.901573 255.14093 
L 193.924175 254.925723 
L 190.659797 254.437075 
L 187.085557 253.627751 
L 183.178734 252.442277 
L 178.917615 250.81615 
L 174.28266 248.675288 
L 169.258063 245.935959 
L 163.8338 242.505464 
L 158.008241 238.283992 
L 151.791374 233.168134 
L 145.208664 227.056651 
L 138.305455 219.859049 
L 131.151699 211.507429 
L 123.8466 201.971669 
L 116.522491 191.277316 
L 109.347017 179.524507 
L 102.522452 166.904895 
L 96.280915 153.712194 
L 90.874486 140.341243 
L 86.559856 127.270959 
L 83.578206 115.02907 
L 82.132378 104.140826 
L 82.36462 95.069205 
L 84.338855 88.158318 
L 88.03106 83.592718 
L 93.329922 81.382001 
L 100.047765 81.373381 
L 107.939597 83.287435 
L 116.726614 86.766894 
L 126.120152 91.426938 
L 135.84268 96.897636 
L 145.643701 102.8534 
L 155.309825 109.028562 
L 164.669385 115.221197 
L 173.59264 121.288736 
L 181.9889 127.138963 
L 189.801782 132.719318 
L 197.003655 138.006451 
L 203.589975 142.997138 
L 209.573994 147.70097 
L 214.98209 152.134845 
L 219.849816 156.319047 
L 224.218679 160.274602 
L 228.133586 164.021631 
L 231.640871 167.578395 
L 234.786831 170.960839 
L 240.173733 177.254298 
L 244.631292 182.981863 
L 255.191808 197.104995 
L 258.500091 200.78309 
L 260.21171 202.410774 
L 261.985136 203.887555 
L 263.83643 205.20403 
L 265.780534 206.349147 
L 267.831326 207.310085 
L 270.001633 208.072141 
L 272.303182 208.618631 
L 274.746499 208.930817 
L 277.340726 208.987883 
L 280.093372 208.766992 
L 283.009966 208.24344 
L 286.093623 207.390966 
L 289.344513 206.182243 
L 292.759219 204.589626 
L 296.330013 202.58619 
L 300.044047 200.14712 
L 303.882486 197.251497 
L 307.819645 193.884488 
L 311.822174 190.039918 
L 315.848392 185.723155 
L 319.84788 180.954118 
L 323.761456 175.770178 
L 327.521677 170.228586 
L 331.054002 164.40799 
L 334.278709 158.408582 
L 337.113626 152.35042 
L 339.477606 146.369638 
L 341.294614 140.612494 
L 342.498135 135.227531 
L 343.035521 130.356507 
L 342.871848 126.125068 
L 341.992816 122.634307 
L 340.40634 119.95433 
L 338.142602 118.120656 
L 335.252527 117.133877 
L 331.804854 116.962427 
L 327.882139 117.547895 
L 323.576119 118.811941 
L 318.98293 120.663829 
L 314.198584 123.007617 
L 309.315049 125.748331 
L 304.417152 128.79671 
L 299.580369 132.072401 
L 294.869506 135.505711 
L 290.338164 139.038154 
L 286.028856 142.622103 
L 281.97361 146.219841 
L 278.194917 149.802287 
L 274.70688 153.347599 
L 271.516455 156.839802 
L 268.6247 160.267527 
L 266.027966 163.622921 
L 263.718993 166.900728 
L 261.687898 170.097557 
L 259.923018 173.211289 
L 258.411645 176.24064 
L 257.140622 179.184811 
L 256.096838 182.043244 
L 255.267618 184.815426 
L 254.641026 187.500752 
L 254.206094 190.098412 
L 253.952991 192.607302 
L 253.873134 195.02595 
L 253.959263 197.352439 
L 254.205482 199.584332 
L 254.607269 201.718596 
L 255.161471 203.75151 
L 255.866279 205.678565 
L 256.72119 207.494354 
L 257.726957 209.192437 
L 258.885529 210.765201 
L 260.199974 212.203692 
L 261.674396 213.49744 
L 263.313822 214.634258 
L 265.12408 215.600037 
L 267.111633 216.378525 
L 269.283387 216.951113 
L 271.646442 217.296633 
L 274.207791 217.391184 
L 276.973938 217.208023 
L 279.950431 216.717541 
L 283.141297 215.887386 
L 286.548347 214.682783 
L 290.170361 213.067117 
L 294.002126 211.002884 
L 298.033342 208.453077 
L 302.247409 205.383115 
L 306.620121 201.763385 
L 311.118348 197.572443 
L 315.698793 192.800837 
L 320.306959 187.455434 
L 324.876514 181.563965 
L 329.32926 175.179366 
L 333.575931 168.383277 
L 337.518038 161.287956 
L 341.05091 154.035783 
L 344.067967 146.795674 
L 346.46611 139.755997 
L 348.151889 133.114127 
L 349.047921 127.063413 
L 349.098887 121.778981 
L 348.276347 117.404265 
L 346.581733 114.040235 
L 344.047048 111.738941 
L 340.733138 110.502275 
L 336.725749 110.28585 
L 332.129869 111.007095 
L 327.063067 112.55595 
L 321.648597 114.806458 
L 316.008946 117.627624 
L 310.260358 120.892435 
L 304.508632 124.484442 
L 298.846293 128.301821 
L 293.35107 132.25918 
L 288.085497 136.287611 
L 283.09739 140.333516 
L 278.42096 144.356723 
L 274.078317 148.32829 
L 270.081178 152.228291 
L 266.432625 156.043785 
L 263.128806 159.767044 
L 260.160505 163.394097 
L 257.514546 166.923572 
L 255.175009 170.355809 
L 253.124257 173.692207 
L 251.343784 176.934746 
L 249.814898 180.085667 
L 248.519256 183.147249 
L 247.439278 186.121665 
L 246.55845 189.010902 
L 245.861539 191.816702 
L 245.334741 194.540534 
L 244.965762 197.183577 
L 244.743869 199.746705 
L 244.659894 202.230474 
L 244.706226 204.635102 
L 244.876778 206.960447 
L 245.166947 209.205971 
L 245.57357 211.370699 
L 246.094879 213.453162 
L 246.730452 215.451331 
L 247.481168 217.362531 
L 248.349173 219.183345 
L 249.33784 220.90949 
L 250.451737 222.53568 
L 251.696593 224.055459 
L 253.079273 225.461012 
L 254.607735 226.74294 
L 256.290989 227.890007 
L 258.139039 228.888858 
L 260.162802 229.72369 
L 262.373997 230.375904 
L 264.784992 230.823727 
L 267.408592 231.041812 
L 270.257749 231.00085 
L 273.345183 230.667209 
L 276.682872 230.002651 
L 280.281399 228.964184 
L 284.149113 227.504137 
L 288.29108 225.570576 
L 292.707798 223.108191 
L 297.393647 220.059848 
L 302.335083 216.368976 
L 307.508597 211.983017 
L 312.878511 206.858077 
L 318.394743 200.96488 
L 323.990746 194.295909 
L 329.581918 186.873437 
L 335.064872 178.757668 
L 340.317991 170.053956 
L 345.203757 160.917514 
L 349.573191 151.553947 
L 353.272601 142.213931 
L 356.152451 133.18108 
L 358.077786 124.753061 
L 358.939149 117.217657 
L 358.662625 110.826924 
L 357.21753 105.773597 
L 354.620465 102.173969 
L 350.93501 100.06027 
L 346.267026 99.383629 
L 340.756294 100.026431 
L 334.56575 101.821079 
L 327.869856 104.57136 
L 320.843519 108.072805 
L 313.652682 112.129405 
L 306.447218 116.56537 
L 299.356336 121.231777 
L 292.486319 126.008839 
L 285.920208 130.804908 
L 279.718947 135.553422 
L 273.923486 140.20883 
L 268.55743 144.742271 
L 263.629881 149.137527 
L 259.138247 153.387505 
L 255.070849 157.49137 
L 251.409246 161.452322 
L 248.130232 165.275937 
L 245.207504 168.969002 
L 242.613021 172.538714 
L 240.318076 175.992177 
L 238.294123 179.336104 
L 236.513397 182.576663 
L 234.949347 185.719421 
L 233.576936 188.769349 
L 231.315433 194.607868 
L 229.563534 200.1219 
L 228.183752 205.335066 
L 226.572132 212.63184 
L 223.151343 229.348915 
L 222.19597 232.957877 
L 221.108557 236.349426 
L 219.842749 239.523208 
L 218.347674 242.473794 
L 216.565378 245.188684 
L 215.545831 246.4512 
L 214.428202 247.64535 
L 213.202074 248.766043 
L 211.856086 249.806927 
L 210.377843 250.760126 
L 208.753843 251.615946 
L 206.9694 252.362513 
L 205.008595 252.985347 
L 202.854232 253.466869 
L 200.487846 253.785816 
L 197.889744 253.916581 
L 195.039122 253.828466 
L 191.914272 253.484854 
L 188.492917 252.84234 
L 184.752711 251.849843 
L 180.671965 250.44779 
L 176.230653 248.567492 
L 171.411772 246.130869 
L 166.20314 243.050808 
L 160.599708 239.23247 
L 154.606445 234.576007 
L 148.241838 228.981205 
L 141.541956 222.354617 
L 134.564932 214.619683 
L 127.395543 205.730084 
L 120.149359 195.686017 
L 112.975647 184.552289 
L 106.058015 172.47585 
L 99.611605 159.699147 
L 93.875744 146.564607 
L 89.101384 133.50545 
L 85.533521 121.019532 
L 83.389963 109.626321 
L 82.839116 99.811866 
L 83.980365 91.971379 
L 86.830794 86.361547 
L 91.321036 83.073499 
L 97.301288 82.03223 
L 104.556348 83.021206 
L 112.826752 85.724558 
L 121.832194 89.77604 
L 131.293593 94.804477 
L 140.951111 100.468728 
L 150.576759 106.479343 
L 159.981466 112.607698 
L 169.017329 118.685446 
L 177.576223 124.59782 
L 185.586021 130.27393 
L 193.005524 135.676438 
L 199.818962 140.79204 
L 206.030623 145.623499 
L 211.65998 150.183413 
L 216.737469 154.489636 
L 221.300975 158.562087 
L 225.393 162.420661 
L 229.05844 166.083958 
L 232.342893 169.568595 
L 235.29142 172.888905 
L 240.353214 179.082295 
L 244.566675 184.734192 
L 253.145064 196.695219 
L 256.358564 200.608993 
L 258.006044 202.365819 
L 259.705053 203.980845 
L 261.472319 205.445954 
L 263.323486 206.751458 
L 265.273203 207.885973 
L 267.335173 208.836292 
L 269.522155 209.58725 
L 271.845907 210.121605 
L 274.317076 210.419951 
L 276.944998 210.460672 
L 279.737438 210.219981 
L 282.700221 209.672061 
L 285.836777 208.789357 
L 289.147574 207.543074 
L 292.629446 205.903927 
L 296.27482 203.84321 
L 300.070847 201.334243 
L 303.998483 198.354239 
L 308.031545 194.886615 
L 312.135825 190.923737 
L 316.26835 186.47 
L 320.376911 181.545083 
L 324.399991 176.187103 
L 328.267261 170.455283 
L 331.900776 164.431655 
L 335.216998 158.221283 
L 338.129682 151.950508 
L 340.553593 145.762888 
L 342.408878 139.812772 
L 343.625796 134.256803 
L 344.149374 129.244099 
L 343.943529 124.906167 
L 342.994139 121.34785 
L 341.310676 118.640505 
L 338.926174 116.818347 
L 335.895485 115.878353 
L 332.292039 115.783553 
L 328.203479 116.469013 
L 323.726658 117.849467 
L 318.962522 119.827492 
L 314.011327 122.301188 
L 308.968555 125.170671 
L 303.921715 128.34294 
L 298.948142 131.735064 
L 294.11372 135.275809 
L 289.472443 138.906009 
L 285.066649 142.578016 
L 280.927744 146.254562 
L 277.077271 149.907318 
L 273.52816 153.515364 
L 270.286065 157.063714 
L 267.35068 160.541988 
L 264.716994 163.943278 
L 262.376425 167.263205 
L 260.317832 170.499173 
L 258.528388 173.649783 
L 256.994312 176.714398 
L 255.701476 179.692807 
L 254.635898 182.58499 
L 253.784124 185.390935 
L 253.133528 188.110515 
L 252.672532 190.743389 
L 252.390765 193.288921 
L 252.279172 195.746116 
L 252.330076 198.113556 
L 252.537213 200.389337 
L 252.895743 202.570995 
L 253.402238 204.655428 
L 254.054654 206.638805 
L 254.852299 208.516461 
L 255.795783 210.282775 
L 256.886963 211.931032 
L 258.128883 213.453263 
L 259.525695 214.840071 
L 261.082572 216.080432 
L 262.805602 217.161482 
L 264.701656 218.068285 
L 266.778226 218.78359 
L 269.043222 219.287599 
L 271.504714 219.55773 
L 274.170612 219.568431 
L 277.04826 219.291044 
L 280.143941 218.693785 
L 283.462254 217.741864 
L 287.005369 216.39784 
L 290.772131 214.622274 
L 294.757013 212.374785 
L 298.94891 209.615606 
L 303.329803 206.307759 
L 307.873333 202.419918 
L 312.543352 197.930015 
L 317.292576 192.829542 
L 322.061492 187.128391 
L 326.777727 180.859892 
L 331.356123 174.085542 
L 335.699775 166.898654 
L 339.702265 159.426072 
L 343.251243 151.827022 
L 346.23338 144.288341 
L 348.540496 137.01576 
L 350.076448 130.221524 
L 350.764135 124.109422 
L 350.551815 118.859045 
L 349.417915 114.611458 
L 347.373627 111.458534 
L 344.462868 109.437555 
L 340.759585 108.531789 
L 336.362727 108.676601 
L 331.389577 109.769731 
L 325.968268 111.683806 
L 320.230331 114.279112 
L 314.303996 117.414962 
L 308.308732 120.958639 
L 302.351276 124.791464 
L 296.523175 128.812112 
L 290.899698 132.93762 
L 285.539875 137.102685 
L 280.487372 141.25788 
L 275.771947 145.367304 
L 271.411214 149.406074 
L 267.412557 153.357938 
L 263.775012 157.213145 
L 260.491053 160.966666 
L 257.548198 164.616764 
L 254.930424 168.163888 
L 252.619363 171.609846 
L 250.595306 174.957219 
L 248.838008 178.208945 
L 247.327332 181.368044 
L 246.043742 184.437451 
L 244.968674 187.419904 
L 244.084797 190.317896 
L 243.376197 193.133644 
L 242.828483 195.869082 
L 242.428851 198.52586 
L 242.166099 201.105348 
L 242.030614 203.608637 
L 242.014343 206.036532 
L 242.314743 210.667885 
L 243.032164 214.999611 
L 243.542235 217.051562 
L 244.153095 219.025854 
L 244.86618 220.920527 
L 245.684108 222.732984 
L 246.610648 224.45988 
L 247.650704 226.096999 
L 248.810298 227.639107 
L 250.096558 229.079775 
L 251.517711 230.411171 
L 253.083063 231.623826 
L 254.802979 232.706355 
L 256.688849 233.645143 
L 258.753028 234.423987 
L 261.008747 235.023699 
L 263.469981 235.421672 
L 266.151253 235.591415 
L 269.067365 235.502079 
L 272.233014 235.11801 
L 275.662291 234.39835 
L 279.368004 233.296774 
L 283.360805 231.761457 
L 287.648077 229.73537 
L 292.232542 227.157106 
L 297.110572 223.962411 
L 302.270178 220.086673 
L 307.688701 215.468615 
L 313.330282 210.055423 
L 319.143235 203.809431 
L 325.057559 196.716348 
L 330.982928 188.794638 
L 336.807605 180.105287 
L 342.398821 170.760653 
L 347.605183 160.930547 
L 352.261586 150.843405 
L 356.196881 140.780476 
L 359.244126 131.061681 
L 361.252731 122.023212 
L 362.101225 113.988917 
L 361.708967 107.239466 
L 360.04496 101.984546 
L 357.132261 98.343314 
L 353.047113 96.336772 
L 347.912885 95.89307 
L 341.889796 96.863915 
L 335.162063 99.048039 
L 327.924337 102.216891 
L 320.369129 106.138215 
L 312.676466 110.594564 
L 305.00641 115.395516 
L 297.494548 120.383791 
L 290.250144 125.436384 
L 283.356421 130.462227 
L 276.872351 135.397839 
L 270.835397 140.202161 
L 265.264698 144.851406 
L 260.164366 149.33443 
L 255.526635 153.648864 
L 251.334711 157.798054 
L 247.565267 161.788761 
L 244.190534 165.629511 
L 241.180019 169.329468 
L 238.501883 172.897706 
L 236.123995 176.342777 
L 234.014736 179.67248 
L 232.143575 182.893775 
L 230.481467 186.012776 
L 227.677023 191.964431 
L 225.405479 197.561741 
L 222.641213 205.346345 
L 218.699044 216.810883 
L 217.064592 220.886173 
L 215.27139 224.665469 
L 213.240651 228.135107 
L 212.111197 229.746573 
L 210.891792 231.270221 
L 209.571477 232.700524 
L 208.138753 234.030651 
L 206.581492 235.252244 
L 204.886871 236.355148 
L 203.041321 237.3271 
L 201.030503 238.153376 
L 198.839308 238.81638 
L 196.451912 239.295193 
L 193.851878 239.565073 
L 191.02233 239.596915 
L 187.946238 239.356713 
L 184.606803 238.80502 
L 180.988021 237.896496 
L 177.075425 236.579602 
L 172.857073 234.796553 
L 168.324816 232.483695 
L 163.475893 229.572498 
L 158.314885 225.991417 
L 152.856033 221.668905 
L 147.125911 216.537905 
L 141.166336 210.54205 
L 135.037363 203.643747 
L 128.820054 195.834015 
L 122.618601 187.143552 
L 116.561236 177.653976 
L 110.799276 167.507452 
L 105.503638 156.912381 
L 100.858307 146.142501 
L 97.050601 135.527043 
L 94.258613 125.430826 
L 92.636889 116.22514 
L 92.302078 108.252833 
L 93.320652 101.793183 
L 95.700811 97.033148 
L 99.390086 94.050702 
L 104.27917 92.813355 
L 110.21138 93.19136 
L 116.99612 94.981873 
L 124.424219 97.938449 
L 132.282952 101.800111 
L 140.369021 106.31562 
L 148.49843 111.260584 
L 156.512881 116.447022 
L 164.282915 121.726443 
L 171.708339 126.988159 
L 178.71668 132.154689 
L 185.260342 137.175827 
L 191.313097 142.022502 
L 196.866364 146.681166 
L 201.925597 151.149035 
L 206.506981 155.430319 
L 210.634542 159.533372 
L 214.337705 163.468645 
L 217.649288 167.247299 
L 220.603906 170.8803 
L 223.236727 174.377895 
L 225.582543 177.749331 
L 227.67509 181.002749 
L 231.227447 187.182623 
L 234.128954 192.96178 
L 236.58296 198.37069 
L 241.832058 210.37748 
L 243.923755 214.583104 
L 246.17716 218.433439 
L 247.395765 220.218032 
L 248.691934 221.90318 
L 250.077892 223.483211 
L 251.566004 224.951153 
L 253.168881 226.298527 
L 254.899451 227.515107 
L 256.771012 228.588656 
L 258.797259 229.504614 
L 260.992265 230.245765 
L 263.370417 230.791863 
L 265.946298 231.119244 
L 268.734481 231.200431 
L 271.749246 231.003744 
L 275.004159 230.492984 
L 278.511531 229.627204 
L 282.281681 228.360676 
L 286.322015 226.643129 
L 290.635861 224.420411 
L 295.221051 221.635718 
L 300.068234 218.231591 
L 305.158937 214.15288 
L 310.463421 209.350858 
L 315.938428 203.788622 
L 321.525008 197.447778 
L 327.146666 190.33618 
L 332.708184 182.496206 
L 338.095547 174.012607 
L 343.177435 165.018602 
L 347.808704 155.698513 
L 351.836137 146.285223 
L 355.106473 137.051067 
L 357.476306 128.291725 
L 358.823013 120.304057 
L 359.05544 113.360431 
L 358.122868 107.683408 
L 356.020842 103.425149 
L 352.792839 100.655268 
L 348.527436 99.35916 
L 343.351371 99.4466 
L 337.419595 100.768287 
L 330.903743 103.136716 
L 323.980589 106.347526 
L 316.821735 110.198187 
L 309.585405 114.502079 
L 302.410737 119.097364 
L 295.414527 123.851038 
L 288.690133 128.659188 
L 282.30806 133.444652 
L 276.317717 138.153237 
L 270.749897 142.749396 
L 265.61959 147.211977 
L 260.928846 151.530431 
L 256.669501 155.701643 
L 252.825641 159.727419 
L 249.375749 163.612589 
L 246.294529 167.363632 
L 243.554395 170.987734 
L 241.126666 174.492159 
L 238.982502 177.883876 
L 237.093602 181.169349 
L 235.432721 184.354448 
L 233.974023 187.444427 
L 231.568109 193.357179 
L 229.703515 198.938955 
L 228.236098 204.21456 
L 226.527279 211.596699 
L 222.946598 228.500619 
L 221.957698 232.147313 
L 220.835148 235.572624 
L 219.530951 238.775717 
L 217.992692 241.750427 
L 216.160889 244.483163 
L 215.113733 245.75178 
L 213.966324 246.949821 
L 212.708043 248.071892 
L 211.327317 249.111277 
L 209.811543 250.059671 
L 208.14701 250.906871 
L 206.31883 251.640403 
L 204.310893 252.245086 
L 202.105837 252.702519 
L 199.685064 252.990494 
L 197.028806 253.082314 
L 194.116257 252.946046 
L 190.925818 252.543694 
L 187.43547 251.830343 
L 183.623323 250.753305 
L 179.468408 249.251368 
L 174.951754 247.254271 
L 170.057846 244.682596 
L 164.776519 241.448359 
L 159.105386 237.456636 
L 153.052826 232.608715 
L 146.641575 226.807263 
L 139.912837 219.964071 
L 132.930726 212.010796 
L 125.786692 202.912826 
L 118.603318 192.685783 
L 111.536671 181.413281 
L 104.776136 169.263328 
L 98.540591 156.499531 
L 93.069931 143.48243 
L 88.611474 130.656531 
L 85.401693 118.520514 
L 83.644949 107.581774 
L 83.492049 98.301236 
L 85.02227 91.038603 
L 88.232306 86.009831 
L 93.034543 83.266524 
L 99.265152 82.701355 
L 106.70044 84.076689 
L 115.078348 87.068059 
L 124.12134 91.311867 
L 133.557295 96.44787 
L 143.13607 102.150593 
L 152.640668 108.147749 
L 161.893102 114.226971 
L 170.755781 120.233819 
L 179.129587 126.064484 
L 186.949855 131.656087 
L 194.181279 136.976706 
L 200.812509 142.016362 
L 206.850973 146.779567 
L 212.318209 151.279573 
L 217.245851 155.53416 
L 221.67231 159.562745 
L 225.640105 163.384495 
L 229.193779 167.017201 
L 232.378327 170.476678 
L 235.238033 173.776517 
L 240.151908 179.940522 
L 244.250966 185.57523 
L 252.64631 197.532233 
L 255.813971 201.457658 
L 257.442511 203.223088 
L 259.124832 204.848613 
L 260.877452 206.326154 
L 262.715883 207.646062 
L 264.654713 208.796984 
L 266.707661 209.765716 
L 268.887577 210.537068 
L 271.206394 211.093725 
L 273.675006 211.416139 
L 276.303089 211.482467 
L 279.098826 211.268582 
L 282.068547 210.74818 
L 285.216274 209.893051 
L 288.543142 208.673532 
L 292.046723 207.059226 
L 295.720231 205.020044 
L 299.551632 202.527623 
L 303.522682 199.557197 
L 307.607937 196.089923 
L 311.773798 192.11568 
L 315.977696 187.63626 
L 320.167522 182.668772 
L 324.281462 177.249016 
L 328.248391 171.434421 
L 331.988986 165.306053 
L 335.417691 158.969141 
L 338.4456 152.551581 
L 340.984222 146.200034 
L 342.94998 140.07349 
L 344.269142 134.334569 
L 344.88274 129.139283 
L 344.750988 124.626376 
L 343.856647 120.907589 
L 342.206929 118.060178 
L 339.83363 116.122725 
L 336.791476 115.094714 
L 333.154845 114.939753 
L 329.013271 115.591723 
L 324.466233 116.96277 
L 319.617785 118.951927 
L 314.571521 121.45328 
L 309.426247 124.362872 
L 304.272603 127.583906 
L 299.190709 131.03014 
L 294.248809 134.62763 
L 289.502793 138.315118 
L 284.996431 142.043448 
L 280.762127 145.77435 
L 276.82203 149.478912 
L 273.189349 153.13595 
L 269.869741 156.730452 
L 266.862689 160.25218 
L 264.162801 163.694473 
L 261.761001 167.053266 
L 259.645572 170.326309 
L 257.803056 173.512567 
L 256.219021 176.611762 
L 254.878681 179.624043 
L 253.767398 182.54974 
L 252.871086 185.389188 
L 252.176507 188.142606 
L 251.671497 190.809999 
L 251.345131 193.391091 
L 251.187828 195.885262 
L 251.191415 198.291492 
L 251.349162 200.608304 
L 251.65579 202.833703 
L 252.10746 204.965103 
L 252.701744 206.999241 
L 253.437597 208.932089 
L 254.315307 210.758732 
L 255.336448 212.473245 
L 256.503822 214.068541 
L 257.821395 215.536203 
L 259.294219 216.866291 
L 260.928344 218.047133 
L 262.73071 219.065091 
L 264.709012 219.904313 
L 266.871526 220.546476 
L 269.226901 220.970526 
L 271.783883 221.152439 
L 274.550967 221.065015 
L 277.535968 220.677746 
L 280.745479 219.956806 
L 284.184196 218.865207 
L 287.85411 217.363217 
L 291.753535 215.409114 
L 295.875959 212.960389 
L 300.208749 209.975526 
L 304.731702 206.41645 
L 309.415514 202.25175 
L 314.220251 197.4607 
L 319.093948 192.038015 
L 323.97153 185.99913 
L 328.774284 179.385592 
L 333.410153 172.269934 
L 337.775126 164.759177 
L 341.755975 156.995962 
L 345.234461 149.156336 
L 348.092985 141.443452 
L 350.221409 134.076988 
L 351.524511 127.278858 
L 351.929325 121.256629 
L 351.391463 116.186829 
L 349.899544 112.200614 
L 347.477048 109.3741 
L 344.18129 107.72482 
L 340.099594 107.214641 
L 335.343215 107.758241 
L 330.039793 109.235369 
L 324.325306 111.504667 
L 318.336367 114.416991 
L 312.203586 117.826657 
L 306.046398 121.599756 
L 299.969534 125.619345 
L 294.061066 129.787814 
L 288.391811 134.027026 
L 283.015821 138.276924 
L 277.971622 142.493234 
L 273.283949 146.644792 
L 268.965711 150.710867 
L 265.020018 154.678705 
L 261.442138 158.541417 
L 258.221294 162.29626 
L 255.342263 165.943282 
L 252.786753 169.484311 
L 250.534557 172.922204 
L 248.564499 176.260341 
L 246.855189 179.502265 
L 245.385615 182.65147 
L 244.13558 185.711264 
L 243.086034 188.684697 
L 242.219291 191.574534 
L 241.51918 194.383245 
L 240.971116 197.113014 
L 240.562142 199.765748 
L 240.117696 204.84645 
L 240.1139 209.635519 
L 240.502502 214.139095 
L 241.256964 218.358902 
L 242.370616 222.291322 
L 243.065118 224.146802 
L 243.855203 225.925834 
L 244.745066 227.625633 
L 245.739966 229.242631 
L 246.846224 230.772335 
L 248.071227 232.209166 
L 249.423436 233.546264 
L 250.912385 234.775261 
L 252.54869 235.886017 
L 254.344034 236.866312 
L 256.31115 237.701493 
L 258.463765 238.374074 
L 260.816518 238.863284 
L 263.384825 239.144576 
L 266.184674 239.189101 
L 269.232331 238.963165 
L 272.543929 238.42771 
L 276.134903 237.53786 
L 280.019237 236.242624 
L 284.208485 234.48485 
L 288.710505 232.201592 
L 293.527884 229.325082 
L 298.656006 225.784556 
L 304.08076 221.509212 
L 309.775909 216.432604 
L 315.700211 210.498728 
L 321.794469 203.669945 
L 327.978783 195.936638 
L 334.150439 187.328105 
L 340.182976 177.923614 
L 345.927069 167.861983 
L 351.213889 157.347314 
L 355.861448 146.64835 
L 359.684105 136.089111 
L 362.504864 126.029646 
L 364.169463 116.837663 
L 364.560568 108.854293 
L 363.610006 102.359387 
L 361.306967 97.54279 
L 357.700646 94.487285 
L 352.896747 93.166372 
L 347.048404 93.456586 
L 340.343044 95.160829 
L 332.987311 98.037254 
L 325.192166 101.828039 
L 317.159931 106.283643 
L 309.074342 111.180116 
L 301.094021 116.328982 
L 293.349185 121.580648 
L 285.941057 126.823018 
L 278.943293 131.977126 
L 272.404708 136.991353 
L 266.352716 141.835384 
L 260.796994 146.494623 
L 255.733075 150.965447 
L 251.145632 155.251415 
L 247.011368 159.360391 
L 243.30147 163.302475 
L 239.983623 167.088581 
L 237.023621 170.729512 
L 234.38662 174.235415 
L 232.038091 177.615481 
L 229.944502 180.877833 
L 228.073798 184.029514 
L 224.881888 190.023989 
L 222.243849 195.636314 
L 218.924013 203.390837 
L 215.920033 210.385291 
L 213.886744 214.628728 
L 211.704862 218.52522 
L 210.527384 220.336908 
L 209.276183 222.052414 
L 207.939246 223.666598 
L 206.504418 225.173101 
L 204.959302 226.564147 
L 203.291172 227.830322 
L 201.48691 228.960316 
L 199.53297 229.940622 
L 197.415375 230.755216 
L 195.119755 231.385182 
L 192.631444 231.808329 
L 189.93564 231.998776 
L 187.017649 231.926547 
L 183.863245 231.557199 
L 180.459149 230.851521 
L 176.793684 229.765384 
L 172.857606 228.249818 
L 168.645176 226.251443 
L 164.155473 223.713398 
L 159.393982 220.576966 
L 154.374463 216.784076 
L 149.12105 212.280915 
L 143.670533 207.022811 
L 138.074662 200.980466 
L 132.402262 194.147439 
L 126.740838 186.548503 
L 121.197277 178.248111 
L 115.897168 169.357769 
L 110.98227 160.04072 
L 106.60574 150.512092 
L 102.924977 141.032855 
L 100.09227 131.896572 
L 98.243919 123.409211 
L 97.488948 115.863891 
L 97.898872 109.514031 
L 99.500074 104.549343 
L 102.270067 101.078999 
L 106.138345 99.125009 
L 110.991746 98.626626 
L 116.683504 99.454287 
L 123.044584 101.429751 
L 129.895731 104.348407 
L 137.05874 108.000055 
L 144.365873 112.185579 
L 151.666814 116.728321 
L 158.833024 121.480189 
L 165.759714 126.323334 
L 172.365887 131.168647 
L 178.592944 135.952294 
L 184.402383 140.631369 
L 189.773007 145.179401 
L 194.697974 149.58222 
L 199.181932 153.834426 
L 203.238379 157.936536 
L 206.887332 161.892799 
L 210.153341 165.709588 
L 213.063835 169.394277 
L 215.647787 172.954492 
L 217.934672 176.397635 
L 219.953662 179.730626 
L 221.733035 182.959767 
L 223.299764 186.090708 
L 224.679239 189.128463 
L 226.96921 194.941605 
L 228.770441 200.428736 
L 230.222487 205.613068 
L 231.99079 212.861416 
L 234.547321 223.644235 
L 235.625122 227.529879 
L 236.818304 231.178309 
L 238.180627 234.588872 
L 239.768474 237.755361 
L 241.643831 240.663919 
L 242.710941 242.01432 
L 243.877179 243.289962 
L 245.153148 244.485365 
L 246.550329 245.593718 
L 248.081164 246.606625 
L 249.759126 247.513801 
L 251.598778 248.302705 
L 253.615814 248.958127 
L 255.827076 249.461692 
L 258.250526 249.7913 
L 260.905171 249.920488 
L 263.810907 249.817727 
L 266.988265 249.445658 
L 270.458026 248.760319 
L 274.240654 247.710389 
L 278.355508 246.236551 
L 282.819763 244.271106 
L 287.646987 241.738009 
L 292.845289 238.553599 
L 298.414991 234.628355 
L 304.345765 229.870091 
L 310.613254 224.189064 
L 317.175239 217.505461 
L 323.967549 209.759603 
L 330.900071 200.924906 
L 337.853416 191.02308 
L 344.677021 180.140199 
L 351.189642 168.441203 
L 357.183256 156.179384 
L 362.431221 143.696674 
L 366.701057 131.410953 
L 369.771365 119.788311 
L 371.451369 109.301496 
L 371.600464 100.379932 
L 370.144595 93.360274 
L 367.08634 88.447888 
L 362.5066 85.697762 
L 356.557406 85.018538 
L 349.447203 86.197443 
L 341.421324 88.938907 
L 332.741003 92.907609 
L 323.663975 97.767507 
L 314.428854 103.211379 
L 305.244323 108.978859 
L 296.28318 114.863832 
L 287.680558 120.71367 
L 279.535301 126.423282 
L 271.913408 131.926649 
L 264.852603 137.187803 
L 258.367292 142.192503 
L 252.453405 146.941216 
L 247.092821 151.443594 
L 242.25721 155.714374 
L 237.911253 159.770492 
L 234.015258 163.62917 
L 230.527217 167.306724 
L 227.404386 170.817906 
L 224.604456 174.175589 
L 219.81098 180.472222 
L 215.842477 186.261921 
L 206.398781 200.878911 
L 203.414127 204.833145 
L 201.862734 206.624178 
L 200.249594 208.283045 
L 198.559033 209.801922 
L 196.776109 211.17142 
L 194.886513 212.380426 
L 192.876521 213.415923 
L 190.732982 214.262802 
L 188.443359 214.903676 
L 185.995832 215.318705 
L 183.379474 215.485448 
L 180.584501 215.378777 
L 177.602623 214.970866 
L 174.427507 214.231325 
L 171.055343 213.127508 
L 167.485562 211.625072 
L 163.721666 209.688861 
L 159.772212 207.284205 
L 155.651893 204.378695 
L 151.382719 200.944529 
L 146.995204 196.961446 
L 142.529505 192.420232 
L 138.036355 187.326687 
L 133.577662 181.7058 
L 129.226552 175.605772 
L 125.066676 169.101309 
L 121.19057 162.295537 
L 117.696933 155.319804 
L 114.686767 148.330717 
L 112.258487 141.504041 
L 110.502264 135.025496 
L 109.494069 129.079066 
L 109.290004 123.834029 
L 109.921612 119.432333 
L 111.392766 115.978119 
L 113.678601 113.530916 
L 116.726674 112.10346 
L 120.460214 111.664253 
L 124.783073 112.144175 
L 129.585752 113.445844 
L 134.751808 115.454168 
L 140.164003 118.046599 
L 145.709675 121.101958 
L 151.284988 124.507152 
L 156.79793 128.161608 
L 162.170087 131.979557 
L 167.337316 135.890576 
L 172.24954 139.838865 
L 176.869883 143.781717 
L 181.173374 147.687594 
L 185.145403 151.534091 
L 188.78008 155.306011 
L 192.078623 158.993643 
L 195.047832 162.591317 
L 197.698718 166.096232 
L 200.045287 169.507539 
L 202.103511 172.825649 
L 203.890464 176.051727 
L 205.423613 179.187326 
L 206.720262 182.234139 
L 207.797114 185.19383 
L 208.669936 188.067917 
L 209.353327 190.857708 
L 209.860544 193.564248 
L 210.203398 196.188284 
L 210.392192 198.730244 
L 210.435694 201.190206 
L 210.341135 203.567866 
L 210.114231 205.862507 
L 209.759212 208.072945 
L 209.278861 210.197481 
L 208.674553 212.233822 
L 207.946303 214.179003 
L 207.092811 216.029281 
L 206.111496 217.780019 
L 204.998549 219.425539 
L 203.74897 220.958963 
L 202.356613 222.372023 
L 200.814243 223.654836 
L 199.113594 224.79567 
L 197.245453 225.780657 
L 195.199761 226.593496 
L 192.96575 227.215123 
L 190.532133 227.62337 
L 187.887342 227.792614 
L 185.019855 227.693459 
L 181.918618 227.292455 
L 178.573586 226.551929 
L 174.976419 225.429978 
L 171.121344 223.880707 
L 167.006227 221.854843 
L 162.633855 219.300842 
L 158.013454 216.166654 
L 153.162418 212.402332 
L 148.108216 207.963603 
L 142.890381 202.816555 
L 137.562446 196.943405 
L 132.193606 190.349194 
L 126.869811 183.068969 
L 121.693942 175.174707 
L 116.784674 166.780877 
L 112.273652 158.047257 
L 108.300731 149.177564 
L 105.007219 140.412646 
L 102.527417 132.017702 
L 100.979082 124.264065 
L 100.453834 117.407367 
L 101.008733 111.665106 
L 102.660274 107.197207 
L 105.381784 104.092952 
L 109.1047 102.366466 
L 113.723577 101.961207 
L 119.104097 102.762072 
L 125.092903 104.612412 
L 131.527962 107.332715 
L 138.24825 110.738033 
L 145.101887 114.652081 
L 151.952194 118.917043 
L 158.681573 123.399051 
L 165.193355 127.989977 
L 171.411984 132.606496 
L 177.281933 137.187435 
L 182.765801 141.690244 
L 187.841934 146.087272 
L 192.501869 150.362248 
L 196.747816 154.507219 
L 200.590306 158.520025 
L 204.046082 162.402331 
L 207.136285 166.158145 
L 209.88493 169.792755 
L 212.317651 173.311993 
L 214.460714 176.721765 
L 216.340237 180.027752 
L 217.981618 183.235255 
L 219.409111 186.349125 
L 220.645542 189.373748 
L 221.712128 192.313069 
L 223.412087 197.949628 
L 224.644458 203.283193 
L 225.518391 208.333978 
L 226.119449 213.119241 
L 226.513007 217.65416 
L 226.81692 224.016753 
L 226.870075 229.888195 
L 226.732577 235.3057 
L 226.428521 240.302659 
L 225.954406 244.908638 
L 225.2831 249.148865 
L 224.702066 251.78248 
L 223.99009 254.266421 
L 223.119806 256.602592 
L 222.056722 258.790004 
L 220.757768 260.823544 
L 219.169454 262.692106 
L 217.225612 264.375782 
L 216.095568 265.138656 
L 214.844697 265.841623 
L 213.459892 266.477486 
L 211.926683 267.037281 
L 210.229125 267.509886 
L 208.349699 267.881559 
L 206.269224 268.135372 
L 203.96679 268.250541 
L 201.419732 268.201634 
L 198.603654 267.957645 
L 195.49255 267.480932 
L 192.059031 266.726018 
L 188.274731 265.638292 
L 184.110937 264.152669 
L 179.539532 262.192301 
L 174.534344 259.667535 
L 169.073012 256.475387 
L 163.139507 252.499938 
L 156.727429 247.61424 
L 149.84419 241.68445 
L 142.516135 234.577122 
L 134.794525 226.170595 
L 126.762105 216.371289 
L 118.539679 205.135166 
L 110.291712 192.493519 
L 102.229523 178.580507 
L 94.610286 163.657535 
L 87.729895 148.127322 
L 81.908202 132.529291 
L 77.46624 117.509213 
L 74.696895 103.760866 
L 73.832727 91.945571 
L 75.016484 82.60436 
L 78.280416 76.083207 
L 83.539237 72.49053 
L 90.598594 71.697469 
L 99.17723 73.378506 
L 108.937984 77.078767 
L 119.521415 82.289146 
L 130.576356 88.512429 
L 141.783557 95.310216 
L 152.870848 102.328041 
L 173.868225 116.05073 
L 192.45349 128.485644 
L 208.20732 139.30252 
L 221.17418 148.599049 
L 226.701183 152.751317 
L 231.655958 156.615537 
L 236.092618 160.221001 
L 243.631884 166.754911 
L 249.746898 172.513022 
L 257.085894 179.906286 
L 261.227807 184.071623 
L 265.076747 187.63273 
L 266.958535 189.179636 
L 268.842271 190.563975 
L 270.747678 191.778893 
L 272.692187 192.816202 
L 274.691052 193.666441 
L 276.757416 194.318933 
L 278.902338 194.76187 
L 281.134763 194.982431 
L 283.46145 194.966954 
L 285.886837 194.701174 
L 288.412858 194.170548 
L 291.038704 193.360692 
L 293.760545 192.257934 
L 296.571208 190.850019 
L 299.459839 189.126956 
L 302.411561 187.082023 
L 305.407161 184.712912 
L 308.422833 182.022974 
L 311.430032 179.022526 
L 314.395473 175.73012 
L 317.281336 172.173664 
L 320.045725 168.391263 
L 322.643421 164.431626 
L 325.026957 160.353868 
L 327.14802 156.226596 
L 328.959153 152.126175 
L 330.415681 148.13419 
L 331.477778 144.33418 
L 332.112511 140.807856 
L 332.295719 137.63111 
L 332.013558 134.870167 
L 331.263557 132.578276 
L 330.055072 130.793267 
L 328.409099 129.536222 
L 326.357429 128.811358 
L 323.941235 128.607063 
L 321.209215 128.897907 
L 318.215441 129.647344 
L 315.017108 130.810767 
L 311.672325 132.338608 
L 308.238114 134.179204 
L 304.768699 136.281252 
L 301.314161 138.595723 
L 297.919471 141.07723 
L 294.623902 143.684862 
L 291.460768 146.382576 
L 288.457452 149.139217 
L 285.635666 151.928284 
L 283.011865 154.727523 
L 280.597782 157.518423 
L 278.401027 160.285671 
L 276.425701 163.016617 
L 274.673014 165.70077 
L 273.14187 168.329341 
L 271.829404 170.894844 
L 270.731471 173.390743 
L 269.843069 175.811166 
L 269.158712 178.150646 
L 268.672734 180.403913 
L 268.379544 182.565709 
L 268.273824 184.630631 
L 268.350685 186.592993 
L 268.605775 188.446693 
L 269.035348 190.185102 
L 269.6363 191.800949 
L 270.406167 193.286216 
L 271.343096 194.632041 
L 272.445779 195.82862 
L 273.713364 196.865128 
L 275.145329 197.729648 
L 276.741321 198.409117 
L 278.500965 198.889314 
L 280.42363 199.154874 
L 282.508156 199.189372 
L 284.75253 198.975463 
L 287.15352 198.495138 
L 289.706264 197.730074 
L 292.403799 196.662142 
L 295.236565 195.274078 
L 298.191867 193.550338 
L 301.253325 191.478163 
L 304.40034 189.048842 
L 307.607599 186.259174 
L 310.84468 183.113062 
L 314.075796 179.623181 
L 317.259753 175.812587 
L 320.350195 171.716118 
L 323.296178 167.381378 
L 326.043161 162.869099 
L 328.534408 158.252668 
L 330.712831 153.616641 
L 332.523191 149.054164 
L 333.91458 144.663336 
L 334.842997 140.542697 
L 335.273848 136.786192 
L 335.184121 133.47806 
L 334.564038 130.688192 
L 333.417995 128.468453 
L 331.764675 126.850388 
L 329.636314 125.844513 
L 327.077178 125.441211 
L 324.141396 125.613027 
L 320.890358 126.317989 
L 317.389902 127.503525 
L 313.707532 129.110496 
L 309.90985 131.076976 
L 306.060356 133.341486 
L 302.217707 135.845518 
L 298.434472 138.535303 
L 294.756363 141.362873 
L 291.22191 144.286512 
L 287.862486 147.270734 
L 284.702638 150.285918 
L 281.760615 153.307733 
L 279.049033 156.316451 
L 276.575619 159.296227 
L 274.343978 162.234407 
L 272.354344 165.120882 
L 270.60429 167.947527 
L 269.089382 170.707711 
L 267.803755 173.395888 
L 266.740627 176.00726 
L 265.892726 178.537491 
L 265.252658 180.982477 
L 264.813199 183.338158 
L 264.56753 185.600349 
L 264.509419 187.764598 
L 264.633355 189.826063 
L 264.934635 191.779388 
L 265.409421 193.61859 
L 266.054755 195.336945 
L 266.868551 196.926879 
L 267.849551 198.379847 
L 268.997265 199.686223 
L 270.311868 200.835188 
L 271.79408 201.81462 
L 273.445007 202.611003 
L 275.265948 203.209352 
L 277.258168 203.593165 
L 279.422613 203.744437 
L 281.759585 203.643718 
L 284.268359 203.270283 
L 286.946735 202.602402 
L 289.790527 201.61777 
L 292.792996 200.294122 
L 295.944212 198.610067 
L 299.230384 196.54618 
L 302.633156 194.08637 
L 306.128917 191.219537 
L 309.688166 187.941491 
L 313.274997 184.25707 
L 316.84678 180.18235 
L 320.354124 175.74677 
L 323.741233 170.994933 
L 326.94672 165.987806 
L 329.90498 160.802986 
L 332.548136 155.533758 
L 334.808544 150.286699 
L 336.621772 145.177763 
L 337.929873 140.326968 
L 338.68471 135.852031 
L 338.851047 131.86154 
L 338.409074 128.448384 
L 337.356097 125.684214 
L 335.707181 123.615595 
L 333.494643 122.262308 
L 330.766452 121.617901 
L 327.58368 121.652312 
L 324.017281 122.316068 
L 320.144515 123.545448 
L 316.045331 125.267915 
L 311.79901 127.407254 
L 307.48127 129.887955 
L 303.161976 132.63861 
L 298.90351 135.594251 
L 294.759781 138.697689 
L 290.77581 141.900011 
L 286.987798 145.160439 
L 283.423565 148.445742 
L 280.103249 151.729388 
L 277.040177 154.990574 
L 274.241809 158.213241 
L 271.710715 161.385153 
L 269.445507 164.497067 
L 267.441721 167.542017 
L 265.692608 170.514722 
L 264.189838 173.411096 
L 262.924101 176.227863 
L 261.885623 178.96224 
L 261.064581 181.611698 
L 260.451453 184.173765 
L 260.037278 186.645864 
L 259.813872 189.025186 
L 259.773974 191.308569 
L 259.911354 193.492391 
L 260.220885 195.572472 
L 260.698568 197.543962 
L 261.341547 199.401237 
L 262.148086 201.137782 
L 263.117526 202.746068 
L 264.250225 204.217415 
L 265.547474 205.541857 
L 267.011385 206.707995 
L 268.644761 207.702843 
L 270.450928 208.511689 
L 272.433533 209.11796 
L 274.596305 209.503112 
L 276.942752 209.64657 
L 279.47581 209.525721 
L 282.197416 209.116008 
L 285.108003 208.39115 
L 288.205913 207.323537 
L 291.486712 205.884844 
L 294.942423 204.046933 
L 298.560673 201.783074 
L 302.32378 199.069563 
L 306.207813 195.887748 
L 310.181686 192.226469 
L 314.206353 188.084856 
L 318.234215 183.475369 
L 322.208859 178.426856 
L 326.065267 172.987314 
L 329.730644 167.225955 
L 333.12597 161.234076 
L 336.168379 155.124287 
L 338.774342 149.027682 
L 340.863557 143.088778 
L 342.363328 137.458336 
L 343.213073 132.284566 
L 343.368542 127.703578 
L 342.805273 123.830181 
L 341.520855 120.750255 
L 339.535708 118.515674 
L 336.892241 117.142466 
L 333.652469 116.612275 
L 329.894366 116.876756 
L 325.707367 117.864062 
L 321.1875 119.486401 
L 316.432602 121.647643 
L 311.538033 124.250156 
L 306.593132 127.200306 
L 301.678579 130.412391 
L 296.864674 133.811022 
L 292.21047 137.332161 
L 287.763633 140.923091 
L 283.560871 144.541666 
L 279.628773 148.155102 
L 275.984911 151.738579 
L 272.639073 155.273809 
L 269.594548 158.747689 
L 266.849357 162.151115 
L 264.397425 165.477972 
L 262.229618 168.724308 
L 260.334668 171.887684 
L 258.699961 174.966664 
L 257.312197 177.960428 
L 256.157932 180.86849 
L 255.224016 183.690478 
L 254.49793 186.425983 
L 253.968051 189.074432 
L 253.623842 191.635 
L 253.455985 194.106525 
L 253.456476 196.487442 
L 253.618672 198.775709 
L 253.937318 200.968733 
L 254.408547 203.063287 
L 255.02986 205.055423 
L 255.800098 206.94036 
L 256.719394 208.71237 
L 257.789124 210.364638 
L 259.011837 211.889111 
L 260.39118 213.276327 
L 261.931801 214.515222 
L 263.639243 215.59293 
L 265.519803 216.494559 
L 267.58036 217.202974 
L 269.828171 217.698572 
L 272.2706 217.95908 
L 274.914796 217.95939 
L 277.767282 217.671466 
L 280.833454 217.064351 
L 284.116967 216.104341 
L 287.618997 214.755375 
L 291.337359 212.979733 
L 295.265495 210.739115 
L 299.391306 207.996225 
L 303.695883 204.716914 
L 308.152157 200.872994 
L 312.723551 196.445716 
L 317.36276 191.429876 
L 322.010783 185.838371 
L 326.596442 179.706867 
L 331.036575 173.098074 
L 335.237167 166.10493 
L 339.095615 158.851875 
L 342.504245 151.493404 
L 345.355089 144.209229 
L 347.545716 137.195824 
L 348.985716 130.654662 
L 349.603225 124.778216 
L 349.350744 119.735377 
L 348.209523 115.658313 
L 346.19185 112.632784 
L 343.340902 110.693327 
L 339.728131 109.823925 
L 335.448519 109.963722 
L 330.614315 111.016542 
L 325.34803 112.862458 
L 319.775457 115.369616 
L 314.01938 118.404813 
L 308.194425 121.841872 
L 302.403287 125.567401 
L 296.734362 129.484019 
L 291.260659 133.511434 
L 286.039771 137.585923 
L 281.114656 141.658765 
L 276.514958 145.694117 
L 272.258656 149.666714 
L 268.353847 153.559643 
L 264.800532 157.362348 
L 261.592309 161.068941 
L 258.717912 164.676835 
L 256.162567 168.185671 
L 253.909155 171.596519 
L 251.93918 174.911286 
L 250.233564 178.13231 
L 248.773275 181.262069 
L 247.539822 184.303008 
L 246.515618 187.257413 
L 245.684257 190.127352 
L 245.030691 192.914632 
L 244.541357 195.620778 
L 244.204239 198.247027 
L 244.008897 200.794312 
L 243.946464 203.263255 
L 244.009623 205.654153 
L 244.19257 207.966951 
L 244.49097 210.201215 
L 244.901907 212.356086 
L 245.423836 214.430232 
L 246.056537 216.421777 
L 246.801073 218.328225 
L 247.659749 220.146356 
L 248.636083 221.872119 
L 249.734773 223.500483 
L 250.961671 225.025286 
L 252.323758 226.439039 
L 253.829113 227.732711 
L 255.486878 228.895474 
L 257.307209 229.914422 
L 259.301207 230.774242 
L 261.48082 231.456862 
L 263.858708 231.94106 
L 266.448048 232.202059 
L 269.262269 232.211104 
L 272.3147 231.935079 
L 275.618086 231.336165 
L 279.18397 230.37163 
L 283.021893 228.993816 
L 287.138378 227.150438 
L 291.535674 224.785325 
L 296.210237 221.839804 
L 301.15093 218.254892 
L 306.336969 213.974548 
L 311.735664 208.950142 
L 317.30008 203.146286 
L 322.96681 196.547981 
L 328.654136 189.168813 
L 334.260972 181.059558 
L 339.667032 172.31613 
L 344.734717 163.08539 
L 349.313145 153.566984 
L 353.244578 144.009437 
L 356.373167 134.699197 
L 358.555507 125.942424 
L 359.672022 118.040869 
L 359.637773 111.264874 
L 358.41114 105.82776 
L 355.998938 101.866144 
L 352.457063 99.429799 
L 347.886471 98.482639 
L 342.42511 98.91404 
L 336.237061 100.557604 
L 329.500455 103.213401 
L 322.395751 106.669733 
L 315.095581 110.721418 
L 307.756945 115.182958 
L 300.516031 119.896258 
L 293.485525 124.733574 
L 286.754026 129.596832 
L 280.387065 134.414613 
L 274.429189 139.137945 
L 268.906666 143.735749 
L 263.830427 148.190532 
L 259.199002 152.494619 
L 255.001248 156.647077 
L 251.218798 160.651316 
L 247.828166 164.513303 
L 244.802502 168.240298 
L 242.113034 171.839994 
L 239.730198 175.319974 
L 237.624512 178.687384 
L 235.767235 181.948772 
L 234.130825 185.110027 
L 232.68926 188.176383 
L 230.29521 194.04234 
L 228.412276 199.577424 
L 226.895917 204.805695 
L 225.054283 212.113549 
L 224.508161 214.414433 
L 224.508161 214.414433 
" style="fill:none;stroke:#ffbec7;stroke-linecap:square;stroke-width:1.5;"/>
   </g>
  </g>
 </g>
 <defs>
  <clipPath id="p1266db582f">
   <rect height="266.112" width="357.12" x="57.6" y="41.472"/>
  </clipPath>
 </defs>
</svg>
