<?xml version="1.0" encoding="UTF-8"?>
<svg xmlns="http://www.w3.org/2000/svg" xmlns:xlink="http://www.w3.org/1999/xlink" width="46pt" height="46pt" viewBox="0 0 46 46" version="1.1">
<g id="surface25075">
<rect x="0" y="0" width="46" height="46" style="fill:rgb(100%,100%,100%);fill-opacity:1;stroke:none;"/>
<path style="fill:none;stroke-width:0.1;stroke-linecap:butt;stroke-linejoin:miter;stroke:rgb(0%,0%,0%);stroke-opacity:1;stroke-miterlimit:10;" d="M 24.780078 19.8 C 25.221875 19.8 25.580078 19.352344 25.580078 18.8 C 25.580078 18.247656 25.221875 17.8 24.780078 17.8 " transform="matrix(20,0,0,20,-475,-353)"/>
<path style="fill:none;stroke-width:0.1;stroke-linecap:butt;stroke-linejoin:miter;stroke:rgb(0%,0%,0%);stroke-opacity:1;stroke-miterlimit:10;" d="M 23.9 17.8 L 23.9 19.8 " transform="matrix(20,0,0,20,-475,-353)"/>
<path style="fill:none;stroke-width:0.1;stroke-linecap:butt;stroke-linejoin:miter;stroke:rgb(0%,0%,0%);stroke-opacity:1;stroke-miterlimit:10;" d="M 23.9 17.8 L 24.780078 17.8 " transform="matrix(20,0,0,20,-475,-353)"/>
<path style="fill:none;stroke-width:0.1;stroke-linecap:butt;stroke-linejoin:miter;stroke:rgb(0%,0%,0%);stroke-opacity:1;stroke-miterlimit:10;" d="M 23.9 19.8 L 24.780078 19.8 " transform="matrix(20,0,0,20,-475,-353)"/>
<path style="fill:none;stroke-width:0.1;stroke-linecap:butt;stroke-linejoin:miter;stroke:rgb(0%,0%,0%);stroke-opacity:1;stroke-miterlimit:10;" d="M 25.9 18.8 C 25.9 19.066602 25.580078 19.066602 25.580078 18.8 C 25.580078 18.533398 25.9 18.533398 25.9 18.8 " transform="matrix(20,0,0,20,-475,-353)"/>
</g>
</svg>
