<?xml version="1.0" encoding="UTF-8"?>
<svg xmlns="http://www.w3.org/2000/svg" xmlns:xlink="http://www.w3.org/1999/xlink" width="45pt" height="46pt" viewBox="0 0 45 46" version="1.1">
<g id="surface49575">
<rect x="0" y="0" width="45" height="46" style="fill:rgb(100%,100%,100%);fill-opacity:1;stroke:none;"/>
<path style="fill:none;stroke-width:0.1;stroke-linecap:butt;stroke-linejoin:miter;stroke:rgb(0%,0%,0%);stroke-opacity:1;stroke-miterlimit:10;" d="M 18.250064 15.25 C 18.250064 15.516211 17.929947 15.516211 17.929947 15.25 C 17.929947 14.983789 18.250064 14.983789 18.250064 15.25 " transform="matrix(20,0,0,20,-322.231758,-282)"/>
<path style="fill:none;stroke-width:0.1;stroke-linecap:butt;stroke-linejoin:miter;stroke:rgb(0%,0%,0%);stroke-opacity:1;stroke-miterlimit:10;" d="M 17.929947 15.25 C 17.535611 14.592773 16.907486 14.219531 16.250064 14.251953 " transform="matrix(20,0,0,20,-322.231758,-282)"/>
<path style="fill:none;stroke-width:0.1;stroke-linecap:butt;stroke-linejoin:miter;stroke:rgb(0%,0%,0%);stroke-opacity:1;stroke-miterlimit:10;" d="M 16.250064 16.248047 C 16.907486 16.280469 17.535611 15.907227 17.929947 15.25 " transform="matrix(20,0,0,20,-322.231758,-282)"/>
<path style="fill:none;stroke-width:0.1;stroke-linecap:butt;stroke-linejoin:miter;stroke:rgb(0%,0%,0%);stroke-opacity:1;stroke-miterlimit:10;" d="M 16.250064 16.248047 C 16.569986 15.642578 16.569986 14.857422 16.250064 14.251953 " transform="matrix(20,0,0,20,-322.231758,-282)"/>
</g>
</svg>
