<?xml version="1.0" encoding="UTF-8"?>
<svg xmlns="http://www.w3.org/2000/svg" xmlns:xlink="http://www.w3.org/1999/xlink" width="220pt" height="263pt" viewBox="0 0 220 263" version="1.1">
<g id="surface101250">
<rect x="0" y="0" width="220" height="263" style="fill:rgb(100%,100%,100%);fill-opacity:1;stroke:none;"/>
<path style="fill-rule:evenodd;fill:rgb(100%,100%,100%);fill-opacity:1;stroke-width:0.1;stroke-linecap:butt;stroke-linejoin:miter;stroke:rgb(0%,0%,0%);stroke-opacity:1;stroke-miterlimit:10;" d="M 26.994206 13.121289 C 26.994206 13.712891 26.514518 14.192578 25.922917 14.192578 C 25.331315 14.192578 24.851628 13.712891 24.851628 13.121289 C 24.851628 12.529687 25.331315 12.05 25.922917 12.05 C 26.514518 12.05 26.994206 12.529687 26.994206 13.121289 " transform="matrix(20,0,0,20,-408.333333,-238)"/>
<path style="fill-rule:evenodd;fill:rgb(100%,100%,100%);fill-opacity:1;stroke-width:0.1;stroke-linecap:butt;stroke-linejoin:miter;stroke:rgb(0%,0%,0%);stroke-opacity:1;stroke-miterlimit:10;" d="M 26.994206 23.833789 C 26.994206 24.425391 26.514518 24.905078 25.922917 24.905078 C 25.331315 24.905078 24.851628 24.425391 24.851628 23.833789 C 24.851628 23.242188 25.331315 22.7625 25.922917 22.7625 C 26.514518 22.7625 26.994206 23.242188 26.994206 23.833789 " transform="matrix(20,0,0,20,-408.333333,-238)"/>
</g>
</svg>
